<?xml version="1.0" encoding="UTF-8" standalone="no"?>
<!-- Created with Inkscape (http://www.inkscape.org/) -->

<svg
   xmlns:dc="http://purl.org/dc/elements/1.1/"
   xmlns:cc="http://creativecommons.org/ns#"
   xmlns:rdf="http://www.w3.org/1999/02/22-rdf-syntax-ns#"
   xmlns:svg="http://www.w3.org/2000/svg"
   xmlns="http://www.w3.org/2000/svg"
   xmlns:sodipodi="http://sodipodi.sourceforge.net/DTD/sodipodi-0.dtd"
   xmlns:inkscape="http://www.inkscape.org/namespaces/inkscape"
   id="svg6323"
   sodipodi:docname="DNA.svg"
   inkscape:export-filename="/home/nathan/Desktop/Anthony Liekens/double_helix_anthony_lie_01.png"
   viewBox="0 0 467.8 128.65"
   sodipodi:version="0.32"
   inkscape:export-xdpi="89.460815"
   version="1.0"
   inkscape:output_extension="org.inkscape.output.svg.inkscape"
   inkscape:export-ydpi="89.460815"
   inkscape:version="0.92.3 (2405546, 2018-03-11)">
  <defs
     id="defs1476" />
  <sodipodi:namedview
     id="base"
     bordercolor="#ffffff"
     inkscape:pageshadow="0"
     inkscape:guide-bbox="true"
     pagecolor="#ffffff"
     inkscape:zoom="1.9388521"
     inkscape:window-width="3840"
     borderlayer="true"
     showgrid="false"
     borderopacity="0.0"
     inkscape:current-layer="layer1"
     inkscape:cx="152.11018"
     inkscape:cy="64.326795"
     showguides="true"
     inkscape:window-y="0"
     inkscape:window-x="0"
     inkscape:window-height="2136"
     showborder="true"
     inkscape:pageopacity="0.0"
     inkscape:document-units="px"
     inkscape:window-maximized="1" />
  <g
     id="layer1"
     inkscape:label="Layer 1"
     inkscape:groupmode="layer"
     transform="translate(118.38 -88.104)">
    <g
       id="g2411"
       transform="matrix(-1,0,0,1,228.26283,0)">
      <path
         id="path6644"
         d="m -10.795,214.34 c -9.503,0.76 -5.265,0.22 -27.113,0.37 -25.776,-0.31 -55.221,-100.88 -78.472,-124.61 13.37,0.053 7.61,0.053 17.22,0.452 22.471,-0.204 50.376,115.95 88.365,123.79 z"
         style="fill:#0000ff;stroke:#000000;stroke-width:3"
         sodipodi:nodetypes="ccccc"
         inkscape:connector-curvature="0" />
      <rect
         id="rect6692"
         style="fill:#00f400;stroke:#000000;stroke-width:1.25"
         transform="scale(-1,1)"
         height="100.87"
         width="7.5741"
         y="99.790001"
         x="42.431" />
      <path
         id="path6761"
         d="m 78.758,214.34 c -9.503,0.76 -5.265,0.22 -27.113,0.37 C 25.869,214.4 -3.576,113.83 -26.831,90.1 c 13.372,0.053 7.611,0.053 17.225,0.452 22.471,-0.204 50.375,115.95 88.364,123.79 z"
         style="fill:#ff0000;stroke:#000000;stroke-width:3"
         sodipodi:nodetypes="ccccc"
         inkscape:connector-curvature="0" />
      <rect
         id="rect6690"
         style="fill:#00f400;stroke:#000000;stroke-width:1.25"
         transform="scale(-1,1)"
         height="117.11"
         width="8.1567001"
         y="95.168999"
         x="17.378" />
      <rect
         id="rect6694"
         style="fill:#00f400;stroke:#000000;stroke-width:1.25"
         transform="scale(-1,1)"
         height="72.827003"
         width="8.1567001"
         y="120.22"
         x="81.466003" />
      <path
         id="path6646"
         d="m -10.795,90.523 c -9.503,-0.76 -5.265,-0.223 -27.113,-0.369 -25.776,0.312 -55.221,100.88 -78.472,124.61 13.37,-0.05 7.61,-0.05 17.22,-0.45 22.471,0.2 50.376,-115.95 88.365,-123.79 z"
         style="fill:#ff0000;stroke:#000000;stroke-width:4"
         sodipodi:nodetypes="ccccc"
         inkscape:connector-curvature="0" />
      <path
         id="path6733"
         style="fill:#ffffff;fill-opacity:0.60265"
         d="m -21.355,90.955 c -5.698,0.02 -11.396,0.043 -17.093,0.063 -11.743,2.593 -17.592,14.982 -23.75,24.192 -4.598,7.94 -8.772,16.12 -12.782,24.37 h 0.344 c 0.907,-1.89 1.786,-3.78 2.781,-5.66 15.287,-28.78 35.738,-45.152 49.563,-41.371 0.867,-0.711 1.392,-1.301 0.937,-1.594 z"
         inkscape:connector-curvature="0" />
      <rect
         id="rect6763"
         style="fill:#00f400;stroke:#000000;stroke-width:1.25"
         transform="scale(-1,1)"
         height="100.87"
         width="7.5741"
         y="99.790001"
         x="-47.123001" />
      <path
         id="path6775"
         d="m 168.31,214.34 c -9.5,0.76 -5.26,0.22 -27.11,0.37 C 115.42,214.4 85.977,113.83 62.722,90.1 c 13.372,0.053 7.612,0.053 17.225,0.452 22.473,-0.204 50.373,115.95 88.363,123.79 z"
         style="fill:#0000ff;stroke:#000000;stroke-width:3"
         sodipodi:nodetypes="ccccc"
         inkscape:connector-curvature="0" />
      <rect
         id="rect6765"
         style="fill:#00f400;stroke:#000000;stroke-width:1.25"
         transform="scale(-1,1)"
         height="117.11"
         width="8.1567001"
         y="95.168999"
         x="-72.175003" />
      <rect
         id="rect6767"
         style="fill:#00f400;stroke:#000000;stroke-width:1.25"
         transform="scale(-1,1)"
         height="72.827003"
         width="8.1567001"
         y="120.22"
         x="-8.0869999" />
      <path
         id="path6769"
         d="m 78.758,90.523 c -9.503,-0.76 -5.265,-0.223 -27.113,-0.369 -25.776,0.312 -55.221,100.88 -78.476,124.61 13.372,-0.05 7.611,-0.05 17.225,-0.45 22.471,0.2 50.375,-115.95 88.364,-123.79 z"
         style="fill:#0000ff;stroke:#000000;stroke-width:4"
         sodipodi:nodetypes="ccccc"
         inkscape:connector-curvature="0" />
      <path
         id="path6771"
         style="fill:#ffffff;fill-opacity:0.60265"
         d="m 68.199,90.955 c -5.698,0.02 -11.396,0.043 -17.094,0.063 -11.742,2.593 -17.592,14.982 -23.75,24.192 -4.597,7.94 -8.772,16.12 -12.781,24.37 h 0.343 c 0.908,-1.89 1.786,-3.78 2.782,-5.66 15.286,-28.78 35.738,-45.152 49.562,-41.371 0.868,-0.711 1.392,-1.301 0.938,-1.594 z"
         inkscape:connector-curvature="0" />
      <rect
         id="rect6777"
         style="fill:#00f400;stroke:#000000;stroke-width:1.25"
         transform="scale(-1,1)"
         height="100.87"
         width="7.5741"
         y="99.790001"
         x="-136.67999" />
      <path
         id="path6789"
         d="m 257.86,214.34 c -9.5,0.76 -5.26,0.22 -27.11,0.37 -25.77,-0.31 -55.22,-100.88 -78.47,-124.61 13.37,0.053 7.61,0.053 17.22,0.452 22.47,-0.204 50.38,115.95 88.36,123.79 z"
         style="fill:#ff0000;stroke:#000000;stroke-width:3"
         sodipodi:nodetypes="ccccc"
         inkscape:connector-curvature="0" />
      <rect
         id="rect6779"
         style="fill:#00f400;stroke:#000000;stroke-width:1.25"
         transform="scale(-1,1)"
         height="117.11"
         width="8.1567001"
         y="95.168999"
         x="-161.73" />
      <rect
         id="rect6781"
         style="fill:#00f400;stroke:#000000;stroke-width:1.25"
         transform="scale(-1,1)"
         height="72.827003"
         width="8.1567001"
         y="120.22"
         x="-97.639999" />
      <path
         id="path6783"
         d="m 168.31,90.523 c -9.5,-0.76 -5.26,-0.223 -27.11,-0.369 -25.78,0.312 -55.223,100.88 -78.478,124.61 13.372,-0.05 7.612,-0.05 17.225,-0.45 22.473,0.2 50.373,-115.95 88.363,-123.79 z"
         style="fill:#ff0000;stroke:#000000;stroke-width:4"
         sodipodi:nodetypes="ccccc"
         inkscape:connector-curvature="0" />
      <path
         id="path6785"
         style="fill:#ffffff;fill-opacity:0.60265"
         d="m 157.75,90.955 c -5.7,0.02 -11.39,0.043 -17.09,0.063 -11.74,2.593 -17.59,14.982 -23.75,24.192 -4.6,7.94 -8.77,16.12 -12.78,24.37 h 0.34 c 0.91,-1.89 1.79,-3.78 2.78,-5.66 15.29,-28.78 35.74,-45.152 49.56,-41.371 0.87,-0.711 1.4,-1.301 0.94,-1.594 z"
         inkscape:connector-curvature="0" />
      <rect
         id="rect6791"
         style="fill:#00f400;stroke:#000000;stroke-width:1.25"
         transform="scale(-1,1)"
         height="100.87"
         width="7.5741"
         y="99.790001"
         x="-226.23" />
      <rect
         id="rect6793"
         style="fill:#00f400;stroke:#000000;stroke-width:1.25"
         transform="scale(-1,1)"
         height="117.11"
         width="8.1567001"
         y="95.168999"
         x="-251.28" />
      <rect
         id="rect6795"
         style="fill:#00f400;stroke:#000000;stroke-width:1.25"
         transform="scale(-1,1)"
         height="72.827003"
         width="8.1567001"
         y="120.22"
         x="-187.19" />
      <path
         id="path6803"
         d="m 347.42,214.34 c -9.5,0.76 -5.27,0.22 -27.11,0.37 -25.78,-0.31 -55.23,-100.88 -78.48,-124.61 13.37,0.053 7.61,0.053 17.22,0.452 22.47,-0.204 50.38,115.95 88.37,123.79 z"
         style="fill:#0000ff;stroke:#000000;stroke-width:3"
         sodipodi:nodetypes="ccccc"
         inkscape:connector-curvature="0" />
      <path
         id="path6797"
         d="m 257.86,90.523 c -9.5,-0.76 -5.26,-0.223 -27.11,-0.369 -25.77,0.312 -55.22,100.88 -78.47,124.61 13.37,-0.05 7.61,-0.05 17.22,-0.45 22.47,0.2 50.38,-115.95 88.36,-123.79 z"
         style="fill:#0000ff;stroke:#000000;stroke-width:4"
         sodipodi:nodetypes="ccccc"
         inkscape:connector-curvature="0" />
      <path
         id="path6799"
         style="fill:#ffffff;fill-opacity:0.60265"
         d="m 247.31,90.955 c -5.7,0.02 -11.4,0.043 -17.1,0.063 -11.74,2.593 -17.59,14.982 -23.75,24.192 -4.6,7.94 -8.77,16.12 -12.78,24.37 h 0.34 c 0.91,-1.89 1.79,-3.78 2.79,-5.66 15.28,-28.78 35.73,-45.152 49.56,-41.371 0.87,-0.711 1.39,-1.301 0.94,-1.594 z"
         inkscape:connector-curvature="0" />
      <rect
         id="rect6805"
         style="fill:#00f400;stroke:#000000;stroke-width:1.25"
         transform="scale(-1,1)"
         height="100.87"
         width="7.5741"
         y="99.790001"
         x="-315.78" />
      <rect
         id="rect6807"
         style="fill:#00f400;stroke:#000000;stroke-width:1.25"
         transform="scale(-1,1)"
         height="117.11"
         width="8.1567001"
         y="95.168999"
         x="-340.84" />
      <rect
         id="rect6809"
         style="fill:#00f400;stroke:#000000;stroke-width:1.25"
         transform="scale(-1,1)"
         height="72.827003"
         width="8.1567001"
         y="120.22"
         x="-276.75" />
      <path
         id="path6811"
         d="m 347.42,90.523 c -9.5,-0.76 -5.27,-0.223 -27.11,-0.369 -25.78,0.312 -55.23,100.88 -78.48,124.61 13.37,-0.05 7.61,-0.05 17.22,-0.45 22.47,0.2 50.38,-115.95 88.37,-123.79 z"
         style="fill:#ff0000;stroke:#000000;stroke-width:4"
         sodipodi:nodetypes="ccccc"
         inkscape:connector-curvature="0" />
      <path
         id="path6813"
         style="fill:#ffffff;fill-opacity:0.60265"
         d="m 336.86,90.955 c -5.7,0.02 -11.4,0.043 -17.1,0.063 -11.74,2.593 -17.59,14.982 -23.75,24.192 -4.59,7.94 -8.77,16.12 -12.78,24.37 h 0.35 c 0.9,-1.89 1.78,-3.78 2.78,-5.66 15.29,-28.78 35.74,-45.152 49.56,-41.371 0.87,-0.711 1.39,-1.301 0.94,-1.594 z"
         inkscape:connector-curvature="0" />
    </g>
  </g>
  <metadata
     id="metadata1473">
    <rdf:RDF>
      <cc:Work>
        <dc:format>image/svg+xml</dc:format>
        <dc:type
           rdf:resource="http://purl.org/dc/dcmitype/StillImage" />
        <cc:license
           rdf:resource="http://creativecommons.org/licenses/publicdomain/" />
        <dc:publisher>
          <cc:Agent
             rdf:about="http://openclipart.org/">
            <dc:title>Openclipart</dc:title>
          </cc:Agent>
        </dc:publisher>
        <dc:title>Double Helix (DNA)</dc:title>
        <dc:date>2006-12-26T00:00:00</dc:date>
        <dc:description />
        <dc:source>https://openclipart.org/detail/24521/-by--24521</dc:source>
        <dc:creator>
          <cc:Agent>
            <dc:title>Anonymous</dc:title>
          </cc:Agent>
        </dc:creator>
      </cc:Work>
      <cc:License
         rdf:about="http://creativecommons.org/licenses/publicdomain/">
        <cc:permits
           rdf:resource="http://creativecommons.org/ns#Reproduction" />
        <cc:permits
           rdf:resource="http://creativecommons.org/ns#Distribution" />
        <cc:permits
           rdf:resource="http://creativecommons.org/ns#DerivativeWorks" />
      </cc:License>
    </rdf:RDF>
  </metadata>
</svg>
