<?xml version="1.0" encoding="UTF-8"?>
<!DOCTYPE svg PUBLIC "-//W3C//DTD SVG 1.1//EN" "http://www.w3.org/Graphics/SVG/1.1/DTD/svg11.dtd">
<svg version="1.1" xmlns="http://www.w3.org/2000/svg" xmlns:xlink="http://www.w3.org/1999/xlink" x="0" y="0" width="450" height="380" viewBox="0, 0, 450, 380">
  <defs>
    <clipPath id="Clip_1">
      <path d="M448.877,1.362 L448.877,378.362 L1.122,378.362 L1.122,1.362 L448.877,1.362 z"/>
    </clipPath>
  </defs>
  <g id="Layer_1">
    <g clip-path="url(#Clip_1)">
      <path d="M256.788,225.543 C256.633,225.447 256.479,225.344 256.325,225.281 C255.668,225.018 254.762,224.774 253.648,224.551 C257.082,223.065 260.348,221.34 263.434,219.375 C263.325,220.222 263.268,221.065 263.257,221.903 z M421.542,144.56 C417.783,146.017 404.656,150.558 404.656,150.558 C404.656,150.558 413.682,141.57 418.848,134.777 C423.36,128.845 417.272,125.376 411.952,129.587 C408.89,132.011 397.337,141.417 397.337,141.417 C397.337,141.417 401.762,134.189 406.128,125.413 C410.395,116.831 402.283,115.138 398.901,119.214 C395.71,123.064 381.807,142.57 381.807,142.57 C381.807,142.57 381.364,140.513 380.501,134.632 C379.43,127.359 371.456,125.23 370.76,135.72 C369.776,150.568 370.229,159.432 370.419,162.097 L370.073,161.796 L300.668,200.851 C297.159,198.656 293.557,197.334 290.661,197.54 C288.666,197.682 286.82,197.967 285.1,198.352 C290.443,190.747 294.716,182.141 297.936,172.914 C311.447,171.084 318.063,164.269 318.063,151.379 C318.063,141.704 314.324,136.561 309.694,133.887 C316.729,101.053 307.557,64.852 286.104,40.405 C286.176,40.045 286.219,39.675 286.219,39.296 L286.219,31.552 L291.067,31.552 L297.008,55.132 C298.605,54.794 294.546,27.95 294.546,27.95 C294.506,27.451 294.274,27.371 293.909,27.421 C293.498,27.256 292.925,27.176 292.286,27.176 L286.152,27.176 C285.71,24.324 282.89,23.018 279.469,23.018 L265.36,23.018 C253.223,15.779 238.995,11.533 222.976,11.533 C206.957,11.533 192.728,15.779 180.592,23.018 L166.469,23.018 C163.048,23.018 160.228,24.324 159.786,27.176 L153.652,27.176 C153.014,27.176 152.44,27.256 152.029,27.421 C151.663,27.371 151.432,27.451 151.392,27.95 C151.392,27.95 147.333,54.794 148.929,55.132 L154.871,31.552 L159.719,31.552 L159.719,39.296 C159.719,39.68 159.762,40.054 159.836,40.418 C138.391,64.865 129.224,101.059 136.258,133.887 C131.628,136.561 127.889,141.705 127.889,151.379 C127.889,164.268 134.504,171.084 148.015,172.914 C156.078,196.02 170.753,215.221 192.297,224.548 C191.178,224.772 190.269,225.016 189.61,225.281 C189.474,225.336 189.34,225.43 189.205,225.51 L75.978,161.796 L75.632,162.097 C75.822,159.432 76.275,150.568 75.291,135.72 C74.596,125.23 66.62,127.359 65.551,134.632 C64.687,140.513 64.244,142.57 64.244,142.57 C64.244,142.57 50.341,123.064 47.15,119.214 C43.768,115.138 35.655,116.831 39.923,125.413 C44.288,134.189 48.714,141.417 48.714,141.417 C48.714,141.417 37.16,132.011 34.099,129.587 C28.779,125.376 22.691,128.845 27.202,134.777 C32.369,141.57 41.395,150.558 41.395,150.558 C41.395,150.558 28.268,146.017 24.51,144.56 C19.503,142.616 14.643,147.667 21.314,151.96 C27.984,156.255 36.319,160.433 36.319,160.433 C36.319,160.433 26.807,161.474 23.509,162.083 C18.895,162.935 17.808,167.786 24.64,168.638 C27.673,169.017 39.663,170.323 39.663,170.323 C40.327,170.579 47.953,178.128 64.347,174.755 L64.504,174.59 L179.752,253.289 C176.936,268.925 174.694,289.247 173.314,309.43 C171.027,342.856 170.905,375.885 181.222,386.606 C181.014,392.628 180.908,399.731 181.051,407.608 C181.498,432.112 202.556,543.632 202.556,543.632 L214.862,627.339 C210.829,628.325 206.858,630.165 204.283,633.52 C202.557,635.77 201.684,637.549 201.294,638.948 C201.294,638.95 201.289,638.952 201.289,638.952 C198.295,644.383 200.577,646.639 200.577,646.639 L229.454,646.389 L229.454,626.548 C229.454,626.548 229.371,626.536 229.223,626.52 L225.809,540.178 L225.89,491.751 C226.134,493.755 226.423,495.692 226.751,497.561 L226.735,497.977 L226.739,497.979 C226.495,505.926 230.623,517.221 236.971,517.698 C243.096,519.948 274.785,508.346 274.785,508.346 L274.606,507.403 C314.421,494.844 371.091,475.28 371.091,475.28 L371.089,475.264 C373.362,478.782 376.435,481.966 380.493,483.294 C383.187,484.176 385.157,484.411 386.605,484.315 C386.606,484.315 386.61,484.319 386.61,484.319 C392.727,485.342 394.098,482.442 394.098,482.442 L384.29,455.282 L381.411,456.294 L365.569,461.86 C365.569,461.86 365.599,461.999 365.656,462.239 C351.236,465.098 291.618,476.956 256.31,484.46 L260.757,447.042 C263.098,430.395 265.317,413.303 265.421,407.608 C265.563,399.811 265.159,392.772 264.544,386.79 C275.036,376.26 274.924,343.042 272.624,309.43 C271.246,289.278 269.008,268.985 266.198,253.358 L276.94,246.023 C276.989,246.054 277.036,246.088 277.085,246.118 C290.839,254.805 298.568,246.999 301.085,252.368 C304.835,260.368 312.96,262.89 324.25,264.391 C334.761,265.788 338.335,259.868 338.335,259.868 C338.335,259.868 328.588,257.315 325.835,251.368 C323.083,245.422 333.835,241.118 326.844,235.063 C322.851,231.604 310.68,230.891 313.835,221.618 C313.941,221.306 314.02,220.985 314.083,220.659 L381.548,174.59 L381.704,174.755 C398.098,178.128 405.723,170.579 406.387,170.323 C406.387,170.323 418.379,169.017 421.411,168.638 C428.243,167.786 427.156,162.935 422.542,162.083 C419.244,161.474 409.733,160.433 409.733,160.433 C409.733,160.433 418.067,156.255 424.737,151.96 C431.408,147.667 426.549,142.616 421.542,144.56" fill="#797979"/>
      <path d="M256.788,225.543 C256.633,225.447 256.479,225.344 256.325,225.281 C255.668,225.018 254.762,224.774 253.648,224.551 C257.082,223.065 260.348,221.34 263.434,219.375 C263.325,220.222 263.268,221.065 263.257,221.903 L256.788,225.543 z M421.542,144.56 C417.783,146.017 404.656,150.558 404.656,150.558 C404.656,150.558 413.682,141.57 418.848,134.777 C423.36,128.845 417.272,125.376 411.952,129.587 C408.89,132.011 397.337,141.417 397.337,141.417 C397.337,141.417 401.762,134.189 406.128,125.413 C410.395,116.831 402.283,115.138 398.901,119.214 C395.71,123.064 381.807,142.57 381.807,142.57 C381.807,142.57 381.364,140.513 380.501,134.632 C379.43,127.359 371.456,125.23 370.76,135.72 C369.776,150.568 370.229,159.432 370.419,162.097 L370.073,161.796 L300.668,200.851 C297.159,198.656 293.557,197.334 290.661,197.54 C288.666,197.682 286.82,197.967 285.1,198.352 C290.443,190.747 294.716,182.141 297.936,172.914 C311.447,171.084 318.063,164.269 318.063,151.379 C318.063,141.704 314.324,136.561 309.694,133.887 C316.729,101.053 307.557,64.852 286.104,40.405 C286.176,40.045 286.219,39.675 286.219,39.296 L286.219,31.552 L291.067,31.552 L297.008,55.132 C298.605,54.794 294.546,27.95 294.546,27.95 C294.506,27.451 294.274,27.371 293.909,27.421 C293.498,27.256 292.925,27.176 292.286,27.176 L286.152,27.176 C285.71,24.324 282.89,23.018 279.469,23.018 L265.36,23.018 C253.223,15.779 238.995,11.533 222.976,11.533 C206.957,11.533 192.728,15.779 180.592,23.018 L166.469,23.018 C163.048,23.018 160.228,24.324 159.786,27.176 L153.652,27.176 C153.014,27.176 152.44,27.256 152.029,27.421 C151.663,27.371 151.432,27.451 151.392,27.95 C151.392,27.95 147.333,54.794 148.929,55.132 L154.871,31.552 L159.719,31.552 L159.719,39.296 C159.719,39.68 159.762,40.054 159.836,40.418 C138.391,64.865 129.224,101.059 136.258,133.887 C131.628,136.561 127.889,141.705 127.889,151.379 C127.889,164.268 134.504,171.084 148.015,172.914 C156.078,196.02 170.753,215.221 192.297,224.548 C191.178,224.772 190.269,225.016 189.61,225.281 C189.474,225.336 189.34,225.43 189.205,225.51 L75.978,161.796 L75.632,162.097 C75.822,159.432 76.275,150.568 75.291,135.72 C74.596,125.23 66.62,127.359 65.551,134.632 C64.687,140.513 64.244,142.57 64.244,142.57 C64.244,142.57 50.341,123.064 47.15,119.214 C43.768,115.138 35.655,116.831 39.923,125.413 C44.288,134.189 48.714,141.417 48.714,141.417 C48.714,141.417 37.16,132.011 34.099,129.587 C28.779,125.376 22.691,128.845 27.202,134.777 C32.369,141.57 41.395,150.558 41.395,150.558 C41.395,150.558 28.268,146.017 24.51,144.56 C19.503,142.616 14.643,147.667 21.314,151.96 C27.984,156.255 36.319,160.433 36.319,160.433 C36.319,160.433 26.807,161.474 23.509,162.083 C18.895,162.935 17.808,167.786 24.64,168.638 C27.673,169.017 39.663,170.323 39.663,170.323 C40.327,170.579 47.953,178.128 64.347,174.755 L64.504,174.59 L179.752,253.289 C176.936,268.925 174.694,289.247 173.314,309.43 C171.027,342.856 170.905,375.885 181.222,386.606 C181.014,392.628 180.908,399.731 181.051,407.608 C181.498,432.112 202.556,543.632 202.556,543.632 L214.862,627.339 C210.829,628.325 206.858,630.165 204.283,633.52 C202.557,635.77 201.684,637.549 201.294,638.948 C201.294,638.95 201.289,638.952 201.289,638.952 C198.295,644.383 200.577,646.639 200.577,646.639 L229.454,646.389 L229.454,626.548 C229.454,626.548 229.371,626.536 229.223,626.52 L225.809,540.178 L225.89,491.751 C226.134,493.755 226.423,495.692 226.751,497.561 L226.735,497.977 L226.739,497.979 C226.495,505.926 230.623,517.221 236.971,517.698 C243.096,519.948 274.785,508.346 274.785,508.346 L274.606,507.403 C314.421,494.844 371.091,475.28 371.091,475.28 L371.089,475.264 C373.362,478.782 376.435,481.966 380.493,483.294 C383.187,484.176 385.157,484.411 386.605,484.315 C386.606,484.315 386.61,484.319 386.61,484.319 C392.727,485.342 394.098,482.442 394.098,482.442 L384.29,455.282 L381.411,456.294 L365.569,461.86 C365.569,461.86 365.599,461.999 365.656,462.239 C351.236,465.098 291.618,476.956 256.31,484.46 L260.757,447.042 C263.098,430.395 265.317,413.303 265.421,407.608 C265.563,399.811 265.159,392.772 264.544,386.79 C275.036,376.26 274.924,343.042 272.624,309.43 C271.246,289.278 269.008,268.985 266.198,253.358 L276.94,246.023 C276.989,246.054 277.036,246.088 277.085,246.118 C290.839,254.805 298.568,246.999 301.085,252.368 C304.835,260.368 312.96,262.89 324.25,264.391 C334.761,265.788 338.335,259.868 338.335,259.868 C338.335,259.868 328.588,257.315 325.835,251.368 C323.083,245.422 333.835,241.118 326.844,235.063 C322.851,231.604 310.68,230.891 313.835,221.618 C313.941,221.306 314.02,220.985 314.083,220.659 L381.548,174.59 L381.704,174.755 C398.098,178.128 405.723,170.579 406.387,170.323 C406.387,170.323 418.379,169.017 421.411,168.638 C428.243,167.786 427.156,162.935 422.542,162.083 C419.244,161.474 409.733,160.433 409.733,160.433 C409.733,160.433 418.067,156.255 424.737,151.96 C431.408,147.667 426.549,142.616 421.542,144.56 z" fill-opacity="0" stroke="#797979" stroke-width="8" stroke-linecap="round" stroke-linejoin="round"/>
      <path d="M265.909,211.661 C265.909,211.661 272.338,198.847 290.661,197.54 C300.085,196.868 316.988,212.347 313.835,221.618 C310.68,230.891 322.851,231.604 326.844,235.063 C333.835,241.118 323.083,245.422 325.835,251.368 C328.588,257.315 338.335,259.868 338.335,259.868 C338.335,259.868 334.761,265.788 324.25,264.391 C312.96,262.89 304.835,260.368 301.085,252.368 C298.568,246.999 290.839,254.805 277.085,246.118 C267.585,240.118 258.641,225.366 265.909,211.661" fill="#EDE1B5"/>
      <path d="M265.909,211.661 C265.909,211.661 272.338,198.847 290.661,197.54 C300.085,196.868 316.988,212.347 313.835,221.618 C310.68,230.891 322.851,231.604 326.844,235.063 C333.835,241.118 323.083,245.422 325.835,251.368 C328.588,257.315 338.335,259.868 338.335,259.868 C338.335,259.868 334.761,265.788 324.25,264.391 C312.96,262.89 304.835,260.368 301.085,252.368 C298.568,246.999 290.839,254.805 277.085,246.118 C267.585,240.118 258.641,225.366 265.909,211.661 z" fill-opacity="0" stroke="#797979" stroke-width="4" stroke-linecap="round" stroke-linejoin="round"/>
      <path d="M222.976,11.533 C151.7,11.533 115.698,95.392 143.116,154.533 C170.535,213.675 206.738,223.033 222.897,223.033 C222.922,223.033 222.949,223.027 222.976,223.026 C223.002,223.027 223.029,223.033 223.054,223.033 C239.214,223.033 275.417,213.675 302.835,154.533 C330.253,95.392 294.252,11.533 222.976,11.533" fill="#EDE1B5"/>
      <path d="M222.976,11.533 C151.7,11.533 115.698,95.392 143.116,154.533 C170.535,213.675 206.738,223.033 222.897,223.033 C222.922,223.033 222.949,223.027 222.976,223.026 C223.002,223.027 223.029,223.033 223.054,223.033 C239.214,223.033 275.417,213.675 302.835,154.533 C330.253,95.392 294.252,11.533 222.976,11.533 z" fill-opacity="0" stroke="#797979" stroke-width="4" stroke-linecap="round" stroke-linejoin="round"/>
      <path d="M272.624,309.43 C269.867,269.113 263.671,228.236 256.325,225.281 C252.085,223.576 237.526,222.724 222.968,222.724 C208.409,222.724 193.851,223.576 189.61,225.281 C182.264,228.236 176.071,269.113 173.314,309.43 C170.689,347.805 170.91,385.673 186.515,389.837 C199.939,393.419 245.997,393.419 259.42,389.837 C275.025,385.673 275.249,347.805 272.624,309.43" fill="#999999"/>
      <path d="M272.624,309.43 C269.867,269.113 263.671,228.236 256.325,225.281 C252.085,223.576 237.526,222.724 222.968,222.724 C208.409,222.724 193.851,223.576 189.61,225.281 C182.264,228.236 176.071,269.113 173.314,309.43 C170.689,347.805 170.91,385.673 186.515,389.837 C199.939,393.419 245.997,393.419 259.42,389.837 C275.025,385.673 275.249,347.805 272.624,309.43 z" fill-opacity="0" stroke="#797979" stroke-width="4" stroke-linecap="round" stroke-linejoin="round"/>
      <path d="M257.794,239.585 C253.918,237.483 243.646,236.694 235.257,236.406 L230.813,233.837 L229.452,219.457 L222.962,215.237 L216.471,219.457 L215.11,233.837 L210.666,236.407 C202.278,236.694 192.014,237.484 188.14,239.585 C187.798,239.772 186.719,242.071 186.719,242.071 C186.655,248.778 197.85,273.273 197.85,273.273 L248.085,273.273 C248.085,273.273 259.279,248.778 259.216,242.071 C259.216,242.071 258.137,239.772 257.794,239.585" fill="#FFF4E8"/>
      <path d="M257.794,239.585 C253.918,237.483 243.646,236.694 235.257,236.406 L230.813,233.837 L229.452,219.457 L222.962,215.237 L216.471,219.457 L215.11,233.837 L210.666,236.407 C202.278,236.694 192.014,237.484 188.14,239.585 C187.798,239.772 186.719,242.071 186.719,242.071 C186.655,248.778 197.85,273.273 197.85,273.273 L248.085,273.273 C248.085,273.273 259.279,248.778 259.216,242.071 C259.216,242.071 258.137,239.772 257.794,239.585 z" fill-opacity="0" stroke="#797979" stroke-width="4" stroke-linecap="round" stroke-linejoin="round"/>
      <path d="M252.391,230.362 C246.276,230.362 239.176,231.965 233.473,233.682 L230.827,233.837 L229.466,219.457 L222.975,215.237 L216.485,219.457 L215.124,233.837 L212.492,233.683 C206.788,231.965 199.687,230.362 193.571,230.362 C185.529,230.362 196.924,267.788 196.924,267.788 L222.979,267.788 L222.981,267.788 L222.983,267.788 L249.128,267.788 C249.128,267.788 260.432,230.362 252.391,230.362" fill="#FFF4E8"/>
      <path d="M252.391,230.362 C246.276,230.362 239.176,231.965 233.473,233.682 L230.827,233.837 L229.466,219.457 L222.975,215.237 L216.485,219.457 L215.124,233.837 L212.492,233.683 C206.788,231.965 199.687,230.362 193.571,230.362 C185.529,230.362 196.924,267.788 196.924,267.788 L222.979,267.788 L222.981,267.788 L222.983,267.788 L249.128,267.788 C249.128,267.788 260.432,230.362 252.391,230.362 z" fill-opacity="0" stroke="#797979" stroke-width="4" stroke-linecap="round" stroke-linejoin="round"/>
      <path d="M247.285,230.89 L370.073,161.796 L370.419,162.097 C370.229,159.432 369.776,150.568 370.76,135.72 C371.456,125.23 379.43,127.359 380.501,134.632 C381.364,140.513 381.807,142.57 381.807,142.57 C381.807,142.57 395.71,123.064 398.901,119.214 C402.283,115.138 410.395,116.831 406.128,125.413 C401.762,134.189 397.337,141.417 397.337,141.417 C397.337,141.417 408.89,132.011 411.952,129.587 C417.272,125.376 423.36,128.845 418.848,134.777 C413.682,141.57 404.656,150.558 404.656,150.558 C404.656,150.558 417.783,146.017 421.542,144.56 C426.549,142.616 431.408,147.667 424.737,151.96 C418.067,156.255 409.733,160.433 409.733,160.433 C409.733,160.433 419.244,161.474 422.542,162.083 C427.156,162.935 428.243,167.786 421.411,168.638 C418.379,169.017 406.387,170.323 406.387,170.323 C405.723,170.579 398.098,178.128 381.704,174.755 L381.548,174.59 L248.436,265.487" fill="#FFF4E8"/>
      <path d="M247.285,230.89 L370.073,161.796 L370.419,162.097 C370.229,159.432 369.776,150.568 370.76,135.72 C371.456,125.23 379.43,127.359 380.501,134.632 C381.364,140.513 381.807,142.57 381.807,142.57 C381.807,142.57 395.71,123.064 398.901,119.214 C402.283,115.138 410.395,116.831 406.128,125.413 C401.762,134.189 397.337,141.417 397.337,141.417 C397.337,141.417 408.89,132.011 411.952,129.587 C417.272,125.376 423.36,128.845 418.848,134.777 C413.682,141.57 404.656,150.558 404.656,150.558 C404.656,150.558 417.783,146.017 421.542,144.56 C426.549,142.616 431.408,147.667 424.737,151.96 C418.067,156.255 409.733,160.433 409.733,160.433 C409.733,160.433 419.244,161.474 422.542,162.083 C427.156,162.935 428.243,167.786 421.411,168.638 C418.379,169.017 406.387,170.323 406.387,170.323 C405.723,170.579 398.098,178.128 381.704,174.755 L381.548,174.59 L248.436,265.487" fill-opacity="0" stroke="#797979" stroke-width="4" stroke-linecap="round" stroke-linejoin="round"/>
      <path d="M198.766,230.89 L75.978,161.796 L75.632,162.097 C75.822,159.432 76.275,150.568 75.291,135.72 C74.596,125.23 66.62,127.359 65.551,134.632 C64.687,140.513 64.244,142.57 64.244,142.57 C64.244,142.57 50.341,123.064 47.15,119.214 C43.768,115.138 35.655,116.831 39.923,125.413 C44.288,134.189 48.714,141.417 48.714,141.417 C48.714,141.417 37.16,132.011 34.099,129.587 C28.779,125.376 22.691,128.845 27.202,134.777 C32.369,141.57 41.395,150.558 41.395,150.558 C41.395,150.558 28.268,146.017 24.51,144.56 C19.503,142.616 14.643,147.667 21.314,151.96 C27.984,156.255 36.319,160.433 36.319,160.433 C36.319,160.433 26.807,161.474 23.509,162.083 C18.895,162.935 17.808,167.786 24.64,168.638 C27.673,169.017 39.663,170.323 39.663,170.323 C40.327,170.579 47.953,178.128 64.347,174.755 L64.504,174.59 L197.614,265.487" fill="#FFF4E8"/>
      <path d="M198.766,230.89 L75.978,161.796 L75.632,162.097 C75.822,159.432 76.275,150.568 75.291,135.72 C74.596,125.23 66.62,127.359 65.551,134.632 C64.687,140.513 64.244,142.57 64.244,142.57 C64.244,142.57 50.341,123.064 47.15,119.214 C43.768,115.138 35.655,116.831 39.923,125.413 C44.288,134.189 48.714,141.417 48.714,141.417 C48.714,141.417 37.16,132.011 34.099,129.587 C28.779,125.376 22.691,128.845 27.202,134.777 C32.369,141.57 41.395,150.558 41.395,150.558 C41.395,150.558 28.268,146.017 24.51,144.56 C19.503,142.616 14.643,147.667 21.314,151.96 C27.984,156.255 36.319,160.433 36.319,160.433 C36.319,160.433 26.807,161.474 23.509,162.083 C18.895,162.935 17.808,167.786 24.64,168.638 C27.673,169.017 39.663,170.323 39.663,170.323 C40.327,170.579 47.953,178.128 64.347,174.755 L64.504,174.59 L197.614,265.487" fill-opacity="0" stroke="#797979" stroke-width="4" stroke-linecap="round" stroke-linejoin="round"/>
      <path d="M269.848,482.294 L255.212,484.696 C255.212,484.696 265.198,419.846 265.421,407.608 C265.868,383.104 260.929,366.026 260.929,366.026 L218.723,365.288 L179.352,366.026 L182.564,366.026 C182.564,366.026 180.605,383.104 181.051,407.608 C181.498,432.112 202.556,543.632 202.556,543.632 L225.803,543.632 L225.89,491.752 C227.473,504.76 230.729,515.403 236.971,517.698 C243.096,519.948 274.785,508.346 274.785,508.346 z" fill="#94A5B7"/>
      <path d="M269.848,482.294 L255.212,484.696 C255.212,484.696 265.198,419.846 265.421,407.608 C265.868,383.104 260.929,366.026 260.929,366.026 L218.723,365.288 L179.352,366.026 L182.564,366.026 C182.564,366.026 180.605,383.104 181.051,407.608 C181.498,432.112 202.556,543.632 202.556,543.632 L225.803,543.632 L225.89,491.752 C227.473,504.76 230.729,515.403 236.971,517.698 C243.096,519.948 274.785,508.346 274.785,508.346 L269.848,482.294 z" fill-opacity="0" stroke="#797979" stroke-width="4" stroke-linecap="round" stroke-linejoin="round"/>
      <path d="M249.225,316.734 L249.221,316.722 L248.092,265.487 L197.842,265.487 L196.714,316.722 L196.71,316.734 C196.55,317.13 177.277,364.831 177.277,374.883 L268.658,374.883 C268.658,364.831 249.385,317.13 249.225,316.734" fill="#FFA2C4"/>
      <path d="M249.225,316.734 L249.221,316.722 L248.092,265.487 L197.842,265.487 L196.714,316.722 L196.71,316.734 C196.55,317.13 177.277,364.831 177.277,374.883 L268.658,374.883 C268.658,364.831 249.385,317.13 249.225,316.734 z" fill-opacity="0" stroke="#797979" stroke-width="4" stroke-linecap="round" stroke-linejoin="round"/>
      <path d="M248.363,277.778 L247.453,237.228 L241.861,236.737 L222.967,265.362 L204.074,236.737 L198.482,237.228 L197.572,277.778" fill="#FFA2C4"/>
      <path d="M248.363,277.778 L247.453,237.228 L241.861,236.737 L222.967,265.362 L204.074,236.737 L198.482,237.228 L197.572,277.778" fill-opacity="0" stroke="#797979" stroke-width="4" stroke-linecap="round" stroke-linejoin="round"/>
      <path d="M269.647,364.51 L267.189,352.456 C266.964,351.352 265.885,350.456 264.781,350.456 L245.055,356.819 L200.879,356.819 L181.154,350.456 C180.049,350.456 178.971,351.352 178.746,352.456 L176.287,364.51 C176.062,365.614 176.775,366.51 177.879,366.51 L268.055,366.51 C269.161,366.51 269.873,365.614 269.647,364.51" fill="#999999"/>
      <path d="M269.647,364.51 L267.189,352.456 C266.964,351.352 265.885,350.456 264.781,350.456 L245.055,356.819 L200.879,356.819 L181.154,350.456 C180.049,350.456 178.971,351.352 178.746,352.456 L176.287,364.51 C176.062,365.614 176.775,366.51 177.879,366.51 L268.055,366.51 C269.161,366.51 269.873,365.614 269.647,364.51 z" fill-opacity="0" stroke="#797979" stroke-width="4" stroke-linecap="round" stroke-linejoin="round"/>
      <path d="M194.23,227.454 C194.234,225.802 204.145,226.341 206.066,226.243 C207.987,226.146 204.974,278.84 197.318,278.914 C196.01,278.927 194.209,235.169 194.23,227.454" fill="#999999"/>
      <path d="M194.23,227.454 C194.234,225.802 204.145,226.341 206.066,226.243 C207.987,226.146 204.974,278.84 197.318,278.914 C196.01,278.927 194.209,235.169 194.23,227.454 z" fill-opacity="0" stroke="#797979" stroke-width="4" stroke-linecap="round" stroke-linejoin="round"/>
      <path d="M251.706,227.454 C251.701,225.802 241.79,226.341 239.87,226.243 C237.948,226.146 240.962,278.84 248.617,278.914 C249.925,278.927 251.725,235.169 251.706,227.454" fill="#999999"/>
      <path d="M251.706,227.454 C251.701,225.802 241.79,226.341 239.87,226.243 C237.948,226.146 240.962,278.84 248.617,278.914 C249.925,278.927 251.725,235.169 251.706,227.454 z" fill-opacity="0" stroke="#797979" stroke-width="4" stroke-linecap="round" stroke-linejoin="round"/>
      <path d="M153.725,131.743 C153.725,131.743 127.889,125.935 127.889,151.379 C127.889,166.346 136.783,173.142 155.07,173.427" fill="#FFF4E8"/>
      <path d="M153.725,131.743 C153.725,131.743 127.889,125.935 127.889,151.379 C127.889,166.346 136.783,173.142 155.07,173.427" fill-opacity="0" stroke="#797979" stroke-width="4" stroke-linecap="round" stroke-linejoin="round"/>
      <path d="M137.734,152.756 C137.734,152.756 141.121,151.052 144.349,151.073" fill="#FFF4E8"/>
      <path d="M137.734,152.756 C137.734,152.756 141.121,151.052 144.349,151.073" fill-opacity="0" stroke="#797979" stroke-width="4" stroke-linecap="round" stroke-linejoin="round"/>
      <path d="M292.225,131.743 C292.225,131.743 318.063,125.935 318.063,151.379 C318.063,166.346 309.169,173.142 290.882,173.427" fill="#FFF4E8"/>
      <path d="M292.225,131.743 C292.225,131.743 318.063,125.935 318.063,151.379 C318.063,166.346 309.169,173.142 290.882,173.427" fill-opacity="0" stroke="#797979" stroke-width="4" stroke-linecap="round" stroke-linejoin="round"/>
      <path d="M308.217,152.756 C308.217,152.756 304.831,151.052 301.602,151.073" fill="#FFF4E8"/>
      <path d="M308.217,152.756 C308.217,152.756 304.831,151.052 301.602,151.073" fill-opacity="0" stroke="#797979" stroke-width="4" stroke-linecap="round" stroke-linejoin="round"/>
      <path d="M222.975,230.639 C109.888,230.639 116.355,18.694 222.975,18.694 C329.596,18.694 336.063,230.639 222.975,230.639" fill="#FFF4E8"/>
      <path d="M222.975,230.639 C109.888,230.639 116.355,18.694 222.975,18.694 C329.596,18.694 336.063,230.639 222.975,230.639 z" fill-opacity="0" stroke="#797979" stroke-width="4" stroke-linecap="round" stroke-linejoin="round"/>
      <path d="M222.976,15.64 C131.426,15.64 129.731,132.868 140.695,132.868 C147.286,67.407 168.866,46.104 222.976,46.104 C277.085,46.104 298.665,67.407 305.257,132.868 C316.22,132.868 314.526,15.64 222.976,15.64" fill="#EDE1B5"/>
      <path d="M237.649,46.743 C239.928,33.743 236.366,15.5 227.598,12.044" fill-opacity="0" stroke="#797979" stroke-width="4" stroke-linecap="round" stroke-linejoin="round"/>
      <path d="M247.533,48.093 C252.031,38.771 253.673,23.557 238.92,13.406" fill-opacity="0" stroke="#797979" stroke-width="4" stroke-linecap="round" stroke-linejoin="round"/>
      <path d="M279.235,62.212 C285.909,51.872 283.108,40.456 278.147,32.264" fill-opacity="0" stroke="#797979" stroke-width="4" stroke-linecap="round" stroke-linejoin="round"/>
      <path d="M302.579,112.163 C306.372,107.229 311.017,94.069 307.442,83.136" fill-opacity="0" stroke="#797979" stroke-width="4" stroke-linecap="round" stroke-linejoin="round"/>
      <path d="M299.522,99.511 C299.522,99.511 306.762,92.414 305.231,73.501" fill-opacity="0" stroke="#797979" stroke-width="4" stroke-linecap="round" stroke-linejoin="round"/>
      <path d="M208.302,46.743 C206.024,33.743 209.585,15.5 218.353,12.044" fill-opacity="0" stroke="#797979" stroke-width="4" stroke-linecap="round" stroke-linejoin="round"/>
      <path d="M198.419,48.093 C193.921,38.771 192.279,23.557 207.032,13.406" fill-opacity="0" stroke="#797979" stroke-width="4" stroke-linecap="round" stroke-linejoin="round"/>
      <path d="M166.716,62.212 C160.042,51.872 162.844,40.456 167.804,32.264" fill-opacity="0" stroke="#797979" stroke-width="4" stroke-linecap="round" stroke-linejoin="round"/>
      <path d="M143.373,112.163 C139.579,107.229 134.934,94.069 138.509,83.136" fill-opacity="0" stroke="#797979" stroke-width="4" stroke-linecap="round" stroke-linejoin="round"/>
      <path d="M146.429,99.511 C146.429,99.511 139.189,92.414 140.72,73.501" fill-opacity="0" stroke="#797979" stroke-width="4" stroke-linecap="round" stroke-linejoin="round"/>
      <path d="M140.695,132.868 C147.286,67.407 168.866,46.104 222.976,46.104 C277.085,46.104 298.665,67.407 305.257,132.868" fill-opacity="0" stroke="#797979" stroke-width="4" stroke-linecap="round" stroke-linejoin="round"/>
      <path d="M223.261,185.351 C204.75,185.351 192.593,182.084 192.593,182.084 C194.501,199.528 207.719,217.998 223.261,217.998 C238.803,217.998 252.022,199.528 253.929,182.084 C253.929,182.084 241.771,185.351 223.261,185.351" fill="#F4ACA6"/>
      <path d="M223.261,185.351 C204.75,185.351 192.593,182.084 192.593,182.084 C194.501,199.528 207.719,217.998 223.261,217.998 C238.803,217.998 252.022,199.528 253.929,182.084 C253.929,182.084 241.771,185.351 223.261,185.351 z" fill-opacity="0" stroke="#797979" stroke-width="4" stroke-linecap="round" stroke-linejoin="round"/>
      <path d="M155.365,29.588 C155.446,28.602 154.582,27.747 153.436,27.678 C152.291,27.608 151.472,26.965 151.392,27.95 C151.392,27.95 147.333,54.794 148.929,55.132 z" fill="#797979"/>
      <path d="M155.365,29.588 C155.446,28.602 154.582,27.747 153.436,27.678 C152.291,27.608 151.472,26.965 151.392,27.95 C151.392,27.95 147.333,54.794 148.929,55.132 L155.365,29.588 z" fill-opacity="0" stroke="#797979" stroke-width="4" stroke-linecap="round" stroke-linejoin="round"/>
      <path d="M290.573,29.588 C290.492,28.602 291.356,27.747 292.502,27.678 C293.647,27.608 294.466,26.965 294.546,27.95 C294.546,27.95 298.605,54.794 297.008,55.132 z" fill="#797979"/>
      <path d="M290.573,29.588 C290.492,28.602 291.356,27.747 292.502,27.678 C293.647,27.608 294.466,26.965 294.546,27.95 C294.546,27.95 298.605,54.794 297.008,55.132 L290.573,29.588 z" fill-opacity="0" stroke="#797979" stroke-width="4" stroke-linecap="round" stroke-linejoin="round"/>
      <path d="M249.969,30.348 C249.969,31.013 246.946,31.552 243.219,31.552 L202.719,31.552 C198.991,31.552 195.969,31.013 195.969,30.348 L195.969,28.143 C195.969,27.478 198.991,27.176 202.719,27.176 L243.219,27.176 C246.946,27.176 249.969,27.478 249.969,28.143 z" fill="#797979"/>
      <path d="M249.969,30.348 C249.969,31.013 246.946,31.552 243.219,31.552 L202.719,31.552 C198.991,31.552 195.969,31.013 195.969,30.348 L195.969,28.143 C195.969,27.478 198.991,27.176 202.719,27.176 L243.219,27.176 C246.946,27.176 249.969,27.478 249.969,28.143 L249.969,30.348 z" fill-opacity="0" stroke="#797979" stroke-width="4" stroke-linecap="round" stroke-linejoin="round"/>
      <path d="M294.55,30.348 C294.55,31.013 293.536,31.552 292.286,31.552 L278.706,31.552 C277.456,31.552 276.442,31.013 276.442,30.348 L276.442,28.143 C276.442,27.478 277.456,27.176 278.706,27.176 L292.286,27.176 C293.536,27.176 294.55,27.478 294.55,28.143 z" fill="#797979"/>
      <path d="M294.55,30.348 C294.55,31.013 293.536,31.552 292.286,31.552 L278.706,31.552 C277.456,31.552 276.442,31.013 276.442,30.348 L276.442,28.143 C276.442,27.478 277.456,27.176 278.706,27.176 L292.286,27.176 C293.536,27.176 294.55,27.478 294.55,28.143 L294.55,30.348 z" fill-opacity="0" stroke="#797979" stroke-width="4" stroke-linecap="round" stroke-linejoin="round"/>
      <path d="M169.496,30.348 C169.496,31.013 168.483,31.552 167.233,31.552 L153.652,31.552 C152.402,31.552 151.388,31.013 151.388,30.348 L151.388,28.143 C151.388,27.478 152.402,27.176 153.652,27.176 L167.233,27.176 C168.483,27.176 169.496,27.478 169.496,28.143 z" fill="#797979"/>
      <path d="M169.496,30.348 C169.496,31.013 168.483,31.552 167.233,31.552 L153.652,31.552 C152.402,31.552 151.388,31.013 151.388,30.348 L151.388,28.143 C151.388,27.478 152.402,27.176 153.652,27.176 L167.233,27.176 C168.483,27.176 169.496,27.478 169.496,28.143 L169.496,30.348 z" fill-opacity="0" stroke="#797979" stroke-width="4" stroke-linecap="round" stroke-linejoin="round"/>
      <path d="M213.719,39.296 C213.719,42.707 210.696,45.472 206.969,45.472 L166.469,45.472 C162.741,45.472 159.719,42.707 159.719,39.296 L159.719,27.975 C159.719,24.564 162.741,23.018 166.469,23.018 L206.969,23.018 C210.696,23.018 213.719,24.564 213.719,27.975 z" fill="#BBBBBB"/>
      <path d="M213.719,39.296 C213.719,42.707 210.696,45.472 206.969,45.472 L166.469,45.472 C162.741,45.472 159.719,42.707 159.719,39.296 L159.719,27.975 C159.719,24.564 162.741,23.018 166.469,23.018 L206.969,23.018 C210.696,23.018 213.719,24.564 213.719,27.975 L213.719,39.296 z" fill-opacity="0" stroke="#797979" stroke-width="4" stroke-linecap="round" stroke-linejoin="round"/>
      <path d="M286.219,39.296 C286.219,42.707 283.196,45.472 279.469,45.472 L238.969,45.472 C235.241,45.472 232.219,42.707 232.219,39.296 L232.219,27.975 C232.219,24.564 235.241,23.018 238.969,23.018 L279.469,23.018 C283.196,23.018 286.219,24.564 286.219,27.975 z" fill="#BBBBBB"/>
      <path d="M286.219,39.296 C286.219,42.707 283.196,45.472 279.469,45.472 L238.969,45.472 C235.241,45.472 232.219,42.707 232.219,39.296 L232.219,27.975 C232.219,24.564 235.241,23.018 238.969,23.018 L279.469,23.018 C283.196,23.018 286.219,24.564 286.219,27.975 L286.219,39.296 z" fill-opacity="0" stroke="#797979" stroke-width="4" stroke-linecap="round" stroke-linejoin="round"/>
      <path d="M170.797,43.186 L174.672,43.186 L179.672,25.356 L174.922,25.356 z" fill="#DEDEDE"/>
      <path d="M178.047,43.186 L181.922,43.186 L186.922,25.356 L182.172,25.356 z" fill="#DEDEDE"/>
      <path d="M240.798,43.186 L244.673,43.186 L249.673,25.356 L244.923,25.356 z" fill="#DEDEDE"/>
      <path d="M248.048,43.186 L251.923,43.186 L256.923,25.356 L252.173,25.356 z" fill="#DEDEDE"/>
      <path d="M221.549,151.169 C222.033,149.359 211.867,181.463 225.706,174.32" fill-opacity="0" stroke="#797979" stroke-width="4" stroke-linecap="round" stroke-linejoin="round"/>
      <path d="M194.079,109.912 C194.079,109.912 188.29,106.188 180.197,106.188 C174.376,106.188 170.738,111.029 170.738,111.029" fill-opacity="0" stroke="#797979" stroke-width="4" stroke-linecap="round" stroke-linejoin="round"/>
      <path d="M251.873,109.912 C251.873,109.912 257.661,106.188 265.755,106.188 C271.576,106.188 275.214,111.029 275.214,111.029" fill-opacity="0" stroke="#797979" stroke-width="4" stroke-linecap="round" stroke-linejoin="round"/>
      <path d="M176.362,139.619 C176.362,139.619 177.75,128.298 186.416,127.965 C195.082,127.632 197.64,139.318 197.64,139.318" fill-opacity="0" stroke="#797979" stroke-width="4" stroke-linecap="round" stroke-linejoin="round"/>
      <path d="M269.591,139.619 C269.591,139.619 268.202,128.298 259.536,127.965 C250.87,127.632 248.311,139.318 248.311,139.318" fill-opacity="0" stroke="#797979" stroke-width="4" stroke-linecap="round" stroke-linejoin="round"/>
    </g>
  </g>
</svg>
