<?xml version="1.0" encoding="UTF-8" standalone="no"?>
<!-- Created with Inkscape (http://www.inkscape.org/) -->

<svg
   version="1.1"
   id="svg1"
   width="259.67981"
   height="75.306664"
   viewBox="0 0 259.67982 75.306666"
   sodipodi:docname="2025-02-19-FoldAI_logo.svg"
   inkscape:version="1.3.2 (091e20e, 2023-11-25, custom)"
   xmlns:inkscape="http://www.inkscape.org/namespaces/inkscape"
   xmlns:sodipodi="http://sodipodi.sourceforge.net/DTD/sodipodi-0.dtd"
   xmlns="http://www.w3.org/2000/svg"
   xmlns:svg="http://www.w3.org/2000/svg">
  <defs
     id="defs1">
    <clipPath
       clipPathUnits="userSpaceOnUse"
       id="clipPath2">
      <path
         d="M 0,0 H 2481.25 V 3509.375 H 0 Z"
         transform="scale(0.31999999)"
         clip-rule="evenodd"
         id="path2" />
    </clipPath>
    <clipPath
       clipPathUnits="userSpaceOnUse"
       id="clipPath4">
      <path
         d="M 0,0 H 2481.25 V 3509.375 H 0 Z"
         transform="scale(0.31999999)"
         clip-rule="evenodd"
         id="path4" />
    </clipPath>
    <linearGradient
       x1="183.98"
       y1="-183.98"
       x2="807.93903"
       y2="439.98001"
       gradientUnits="userSpaceOnUse"
       gradientTransform="translate(-1.5773164e-7,-12.218207)"
       spreadMethod="pad"
       id="linearGradient25">
      <stop
         style="stop-opacity:1;stop-color:#0f5578"
         offset="0"
         id="stop24" />
      <stop
         style="stop-opacity:1;stop-color:#38a595"
         offset="1"
         id="stop25" />
    </linearGradient>
    <clipPath
       clipPathUnits="userSpaceOnUse"
       id="clipPath25">
      <path
         d="M 0,3071.6523 H 2481.25 V 3509.375 H 0 Z"
         transform="matrix(0.37450607,0,0,0.37450607,21.012839,-1150.3524)"
         clip-rule="evenodd"
         id="path25" />
    </clipPath>
    <clipPath
       clipPathUnits="userSpaceOnUse"
       id="clipPath26">
      <path
         d="M 239.04337,3207.7466 H 2241.2717 c 45.2888,0 82.0027,36.7138 82.0027,82.0027 0,45.289 -36.7139,82.0029 -82.0027,82.0029 H 239.04337 c -45.2889,0 -82.0028,-36.7139 -82.0028,-82.0029 0,-45.2889 36.7139,-82.0027 82.0028,-82.0027 z"
         transform="matrix(1.5609226,0,0,1.5609226,-245.12818,-5007.044)"
         id="path26" />
    </clipPath>
    <clipPath
       clipPathUnits="userSpaceOnUse"
       id="clipPath27">
      <path
         d="M 157.04057,3207.7466 H 2323.7078 v 164.0056 H 157.04057 Z"
         transform="matrix(0.31999999,0,0,0.31999999,0,10.439975)"
         id="path27" />
    </clipPath>
    <clipPath
       clipPathUnits="userSpaceOnUse"
       id="clipPath28">
      <path
         d="M 0,0 H 2481.25 V 3509.375 H 0 Z"
         transform="matrix(0.31999999,0,0,0.31999999,0,10.439975)"
         id="path28" />
    </clipPath>
    <clipPath
       clipPathUnits="userSpaceOnUse"
       id="clipPath31">
      <path
         d="M 0,0 H 2481.25 V 3509.375 H 0 Z"
         transform="matrix(0.31999999,0,0,0.31999999,0,10.439975)"
         id="path31" />
    </clipPath>
    <clipPath
       clipPathUnits="userSpaceOnUse"
       id="clipPath33">
      <path
         d="m 993.01727,3261.21 h 53.12503 v 53.125 h -53.12503 z"
         transform="matrix(9.4464941,0,0,9.4464941,-9380.5317,-30807)"
         clip-rule="evenodd"
         id="path33" />
    </clipPath>
    <clipPath
       clipPathUnits="userSpaceOnUse"
       id="clipPath35">
      <path
         d="m 248.03149,3259.8428 h 53.125 v 53.125 h -53.125 z"
         transform="matrix(9.326047,0,0,9.326047,-2313.1533,-30401.446)"
         clip-rule="evenodd"
         id="path35" />
    </clipPath>
    <clipPath
       clipPathUnits="userSpaceOnUse"
       id="clipPath37">
      <path
         d="m 1588.8822,3266.208 h 56.2303 v 46.875 h -56.2303 z"
         transform="matrix(8.6912519,0,0,8.6912519,-13809.375,-28387.437)"
         clip-rule="evenodd"
         id="path37" />
    </clipPath>
    <clipPath
       clipPathUnits="userSpaceOnUse"
       id="clipPath39">
      <path
         d="m 1588.8822,3266.208 h 56.2303 v 46.875 h -56.2303 z"
         transform="matrix(8.6912519,0,0,8.6912519,-13809.375,-28387.437)"
         clip-rule="evenodd"
         id="path39" />
    </clipPath>
    <clipPath
       clipPathUnits="userSpaceOnUse"
       id="clipPath41">
      <path
         d="m 1588.8822,3266.208 h 56.2303 v 46.875 h -56.2303 z"
         transform="matrix(8.6912519,0,0,8.6912519,-13809.375,-28387.437)"
         clip-rule="evenodd"
         id="path41" />
    </clipPath>
    <linearGradient
       x1="39.950001"
       y1="5.77"
       x2="39.689999"
       y2="49.599998"
       gradientUnits="userSpaceOnUse"
       gradientTransform="translate(-3.0936898e-7,-7.2851081)"
       spreadMethod="pad"
       id="linearGradient48">
      <stop
         style="stop-opacity:1;stop-color:#00c2cb"
         offset="0"
         id="stop47" />
      <stop
         style="stop-opacity:1;stop-color:#545454"
         offset="1"
         id="stop48" />
    </linearGradient>
    <clipPath
       clipPathUnits="userSpaceOnUse"
       id="clipPath48">
      <path
         d="m 130.74916,210.64496 h 287.5 v 234.375 h -287.5 z"
         transform="matrix(0.22329828,0,0,0.22329828,-29.196063,-47.117167)"
         clip-rule="evenodd"
         id="path48" />
    </clipPath>
    <clipPath
       clipPathUnits="userSpaceOnUse"
       id="clipPath65">
      <path
         d="M 0,0 H 2481.25 V 3509.375 H 0 Z"
         transform="matrix(0.3599955,0,0,0.3599955,-56.533899,-413.16379)"
         clip-rule="evenodd"
         id="path65" />
    </clipPath>
  </defs>
  <sodipodi:namedview
     id="namedview1"
     pagecolor="#ffffff"
     bordercolor="#000000"
     borderopacity="0.25"
     inkscape:showpageshadow="2"
     inkscape:pageopacity="0.0"
     inkscape:pagecheckerboard="0"
     inkscape:deskcolor="#d1d1d1"
     showgrid="false"
     inkscape:zoom="1.047195"
     inkscape:cx="-110.29464"
     inkscape:cy="-250.66964"
     inkscape:window-width="2560"
     inkscape:window-height="1476"
     inkscape:window-x="-12"
     inkscape:window-y="-12"
     inkscape:window-maximized="1"
     inkscape:current-layer="g1">
    <inkscape:page
       x="0"
       y="0"
       inkscape:label="1"
       id="page1"
       width="259.67981"
       height="75.306664"
       margin="0"
       bleed="0" />
  </sodipodi:namedview>
  <g
     id="g1"
     inkscape:groupmode="layer"
     inkscape:label="1"
     transform="translate(-244.28531,-444.64127)">
    <g
       id="g41">
      <g
         id="g42" />
      <path
         id="path42"
         d="m 1.2496426,-10.297465 h 1.0312501 v 4.2656247 c 0.1445312,-0.21875 0.3320312,-0.4101562 0.5625,-0.578125 0.1875,-0.15625 0.421875,-0.2890625 0.703125,-0.40625 0.28125,-0.125 0.6171876,-0.1875 1.0156251,-0.1875 0.4140625,0 0.8007813,0.074219 1.15625,0.21875 0.3515625,0.1367188 0.6562501,0.3359375 0.9062501,0.59375 0.25,0.2617188 0.4414062,0.5781251 0.578125,0.9531251 0.1445312,0.375 0.21875,0.7929687 0.21875,1.25 v 4.18750019349 h -1.03125 V -4.1880902 c 0,-0.625 -0.1796876,-1.125 -0.5312501,-1.5 -0.3554687,-0.3750001 -0.8125,-0.5625001 -1.375,-0.5625001 -0.3125,0 -0.6054688,0.058594 -0.8750001,0.171875 -0.2734375,0.1171875 -0.5078125,0.2773438 -0.703125,0.4843751 -0.1992187,0.1992187 -0.3554688,0.4453125 -0.46875,0.734375 -0.1054688,0.2929688 -0.15625,0.6171875 -0.15625,0.96875 V -5.9000651e-4 H 1.2496426 Z m 11.0468754,10.4375 c -0.605469,0 -1.078125,-0.17187501 -1.421875,-0.51562502 -0.34375,-0.35156252 -0.515625,-0.86328128 -0.515625,-1.53125008 V -6.1099653 H 9.030893 v -0.953125 h 0.8125 c 0.394531,0 0.59375,-0.2421875 0.59375,-0.734375 v -1.6093751 h 0.953125 v 2.3437501 h 1.546875 v 0.953125 h -1.546875 v 4.2031252 c 0,0.3671875 0.08203,0.640625 0.25,0.828125 0.175781,0.17968756 0.410156,0.26562506 0.703125,0.26562506 0.125,0 0.242188,-0.007813 0.359375,-0.03125 0.125,-0.0195313 0.226563,-0.0390625 0.3125,-0.0625 0.113281,-0.0390625 0.207031,-0.0820313 0.28125,-0.12499996 v 0.95312499 c -0.08594,0.04296875 -0.183594,0.08203125 -0.296875,0.12500001 -0.08594,0.03125 -0.1875,0.05078125 -0.3125,0.0625 -0.125,0.0195312 -0.257812,0.03125 -0.390625,0.03125 z m 5.285157,0 c -0.605469,0 -1.078125,-0.17187501 -1.421875,-0.51562502 -0.343751,-0.35156252 -0.515626,-0.86328128 -0.515626,-1.53125008 v -4.2031252 h -1.328125 v -0.953125 h 0.8125 c 0.394532,0 0.59375,-0.2421875 0.59375,-0.734375 v -1.6093751 h 0.953126 v 2.3437501 H 18.2223 v 0.953125 h -1.546875 v 4.2031252 c 0,0.3671875 0.08203,0.640625 0.25,0.828125 0.175781,0.17968756 0.410156,0.26562506 0.703125,0.26562506 0.125,0 0.242187,-0.007813 0.359375,-0.03125 0.125,-0.0195313 0.226562,-0.0390625 0.3125,-0.0625 0.113281,-0.0390625 0.207031,-0.0820313 0.28125,-0.12499996 v 0.95312499 c -0.08594,0.04296875 -0.183594,0.08203125 -0.296875,0.12500001 -0.08594,0.03125 -0.1875,0.05078125 -0.3125,0.0625 -0.125,0.0195312 -0.257813,0.03125 -0.390625,0.03125 z m 2.757812,-7.2031253 h 1.03125 v 1.03125 c 0.15625,-0.21875 0.359375,-0.4101562 0.609375,-0.578125 0.195313,-0.15625 0.445313,-0.2890625 0.75,-0.40625 0.300782,-0.125 0.65625,-0.1875 1.0625,-0.1875 0.488282,0 0.941407,0.09375 1.359375,0.28125 0.414063,0.1796875 0.78125,0.4335938 1.09375,0.765625 0.3125,0.3242188 0.554688,0.7109376 0.734375,1.1562501 0.1875,0.4492188 0.28125,0.9375 0.28125,1.46875 0,0.5312501 -0.09375,1.0273438 -0.28125,1.4843751 -0.179687,0.4492188 -0.421875,0.8398438 -0.734375,1.17187506 -0.3125,0.32421876 -0.679687,0.57421877 -1.09375,0.75000003 -0.417968,0.17578126 -0.871093,0.26562501 -1.359375,0.26562501 -0.40625,0 -0.761718,-0.05859375 -1.0625,-0.17187501 -0.304687,-0.125 -0.554687,-0.25781251 -0.75,-0.40625001 -0.25,-0.17578126 -0.453125,-0.37500002 -0.609375,-0.59374998 v 4.1250001 h -1.03125 z m 3.453125,6.25000026 c 0.332032,0 0.644532,-0.0625 0.9375,-0.18749996 0.300782,-0.1328126 0.5625,-0.3203126 0.78125,-0.5625001 0.21875,-0.2382812 0.390625,-0.5234375 0.515625,-0.859375 0.132813,-0.3320313 0.203125,-0.703125 0.203125,-1.1093751 0,-0.3945312 -0.07031,-0.7578125 -0.203125,-1.09375 -0.125,-0.3320313 -0.296875,-0.6171875 -0.515625,-0.859375 -0.21875,-0.25 -0.480468,-0.4375001 -0.78125,-0.5625001 -0.292968,-0.1328125 -0.605468,-0.203125 -0.9375,-0.203125 -0.3125,0 -0.617187,0.070312 -0.90625,0.203125 -0.28125,0.1367188 -0.539062,0.3281251 -0.765625,0.5781251 -0.230468,0.2421875 -0.414062,0.5273437 -0.546875,0.859375 -0.136719,0.3359375 -0.203125,0.6953125 -0.203125,1.078125 0,0.3867188 0.06641,0.7460938 0.203125,1.0781251 0.132813,0.3359375 0.316407,0.625 0.546875,0.875 0.226563,0.2421875 0.484375,0.4296875 0.765625,0.5625001 0.289063,0.13671871 0.59375,0.20312496 0.90625,0.20312496 z M 30.999644,0.140035 c -0.449219,0 -0.835938,-0.0625 -1.15625,-0.18750001 -0.324219,-0.125 -0.59375,-0.26562501 -0.8125,-0.42187502 -0.25,-0.17578125 -0.453125,-0.39062501 -0.609375,-0.64062507 l 0.734375,-0.734375 c 0.132812,0.1992188 0.289062,0.3710938 0.46875,0.515625 0.15625,0.1367188 0.347656,0.2578125 0.578125,0.35937505 0.226562,0.10546876 0.492187,0.15625001 0.796875,0.15625001 0.507812,0 0.890625,-0.109375 1.140625,-0.32812506 0.257812,-0.2265625 0.390625,-0.5078125 0.390625,-0.84375 0,-0.2578125 -0.09375,-0.46875 -0.28125,-0.625 -0.1875,-0.1640625 -0.421875,-0.296875 -0.703125,-0.390625 -0.28125,-0.1015625 -0.589844,-0.203125 -0.921875,-0.296875 -0.335938,-0.09375 -0.640625,-0.2109376 -0.921875,-0.3593751 -0.28125,-0.1445312 -0.515625,-0.3359375 -0.703125,-0.578125 -0.1875,-0.25 -0.28125,-0.578125 -0.28125,-0.984375 0,-0.2578125 0.05078,-0.5078125 0.15625,-0.7500001 0.113281,-0.2382812 0.273437,-0.4453125 0.484375,-0.625 0.207031,-0.1757812 0.453125,-0.3203125 0.734375,-0.4375 0.289062,-0.1132813 0.613281,-0.171875 0.96875,-0.171875 0.375,0 0.703125,0.054687 0.984375,0.15625 0.28125,0.1054688 0.519531,0.2148438 0.71875,0.328125 0.21875,0.1367188 0.410156,0.2929688 0.578125,0.46875 l -0.734375,0.7343751 c -0.105469,-0.1328125 -0.230469,-0.2539063 -0.375,-0.3593751 -0.148438,-0.09375 -0.3125,-0.1757812 -0.5,-0.25 -0.1875,-0.082031 -0.414063,-0.125 -0.671875,-0.125 -0.398438,0 -0.714844,0.109375 -0.953125,0.328125 -0.242188,0.2109376 -0.359375,0.4453126 -0.359375,0.7031251 0,0.25 0.09375,0.453125 0.28125,0.609375 0.1875,0.1484375 0.421875,0.265625 0.703125,0.359375 0.28125,0.09375 0.585937,0.1875 0.921875,0.28125 0.332031,0.09375 0.640625,0.21875 0.921875,0.375 0.28125,0.1562501 0.515625,0.3593751 0.703125,0.6093751 0.1875,0.25 0.28125,0.5859375 0.28125,1 0,0.2929688 -0.05859,0.5703125 -0.171875,0.828125 -0.117188,0.26171881 -0.289063,0.49218757 -0.515625,0.68750007 -0.21875,0.18750001 -0.492188,0.33984377 -0.8125,0.45312502 -0.3125,0.10156251 -0.667969,0.15625001 -1.0625,0.15625001 z m 4.769531,0 c -0.230468,0 -0.414062,-0.0625 -0.546875,-0.18750001 -0.125,-0.1328125 -0.1875,-0.31640626 -0.1875,-0.54687502 0,-0.21875001 0.0625,-0.39453127 0.1875,-0.53125007 0.132813,-0.1328125 0.316407,-0.203125 0.546875,-0.203125 0.21875,0 0.394532,0.070312 0.53125,0.203125 0.132813,0.1367188 0.203125,0.31250006 0.203125,0.53125007 0,0.23046876 -0.07031,0.41406252 -0.203125,0.54687502 C 36.163707,0.077535 35.987925,0.140035 35.769175,0.140035 Z m 0,-5.8750002 c -0.230468,0 -0.414062,-0.0625 -0.546875,-0.1875001 -0.125,-0.1328125 -0.1875,-0.3164062 -0.1875,-0.546875 0,-0.2265625 0.0625,-0.40625 0.1875,-0.53125 0.132813,-0.1328125 0.316407,-0.203125 0.546875,-0.203125 0.21875,0 0.394532,0.070312 0.53125,0.203125 0.132813,0.125 0.203125,0.3046875 0.203125,0.53125 0,0.2304688 -0.07031,0.4140625 -0.203125,0.546875 -0.136718,0.1250001 -0.3125,0.1875001 -0.53125,0.1875001 z m 5.945313,-4.7031248 h 0.953125 l -4.40625,13.5312501 h -0.953125 z m 5.359375,0 h 0.953125 l -4.40625,13.5312501 h -0.953125 z m 2.125,3.3749997 h 1.03125 v 0.953125 c 0.15625,-0.1875 0.347657,-0.3632812 0.578125,-0.53125 0.195313,-0.1445312 0.4375,-0.2734375 0.71875,-0.390625 0.289063,-0.1132813 0.644532,-0.171875 1.062501,-0.171875 h 0.296875 v 1.03125 h -0.453125 c -0.292969,0 -0.574219,0.054687 -0.843751,0.15625 -0.261718,0.1054688 -0.496093,0.2578126 -0.703125,0.4531251 -0.199218,0.1992187 -0.359375,0.4375 -0.484375,0.71875 -0.117187,0.28125 -0.171875,0.6015625 -0.171875,0.953125 v 3.89062519349 h -1.03125 z m 5.070313,0 h 1.03125 v 1.03125 c 0.144531,-0.21875 0.332031,-0.4101562 0.5625,-0.578125 0.195313,-0.15625 0.429688,-0.2890625 0.703125,-0.40625 0.28125,-0.125 0.617188,-0.1875 1.015625,-0.1875 0.414063,0 0.800782,0.074219 1.15625,0.21875 0.351563,0.1367188 0.65625,0.3359375 0.90625,0.59375 0.25,0.2617188 0.441407,0.5781251 0.578125,0.9531251 0.144532,0.375 0.21875,0.7929687 0.21875,1.25 V -5.9000651e-4 H 59.425426 V -4.1880902 c 0,-0.625 -0.183593,-1.125 -0.546875,-1.5 -0.355468,-0.3750001 -0.8125,-0.5625001 -1.375,-0.5625001 -0.3125,0 -0.605469,0.058594 -0.875,0.171875 -0.273437,0.1171875 -0.507812,0.2773438 -0.703125,0.4843751 -0.1875,0.1992187 -0.339844,0.4453125 -0.453125,0.734375 -0.117187,0.2929688 -0.171875,0.6171875 -0.171875,0.96875 v 3.89062519349 h -1.03125 z M 64.769177,0.140035 c -0.367188,0 -0.703125,-0.05859375 -1.015626,-0.17187501 -0.304687,-0.11328125 -0.5625,-0.26562501 -0.78125,-0.45312502 -0.21875,-0.1953125 -0.390625,-0.42187501 -0.515625,-0.67187507 -0.125,-0.25 -0.1875,-0.5 -0.1875,-0.75 0,-0.59375 0.175782,-1.0664063 0.53125,-1.421875 0.351563,-0.3632813 0.863282,-0.6015626 1.531251,-0.7187501 l 2.71875,-0.4375 c 0,-0.5195313 -0.167969,-0.9414063 -0.5,-1.265625 -0.324219,-0.3320313 -0.746094,-0.5000001 -1.265625,-0.5000001 -0.3125,0 -0.59375,0.058594 -0.84375,0.171875 -0.242188,0.1054688 -0.445313,0.21875 -0.609376,0.3437501 -0.199218,0.15625 -0.375,0.328125 -0.53125,0.515625 l -0.65625,-0.6562501 c 0.195313,-0.25 0.425782,-0.4726562 0.6875,-0.671875 0.226563,-0.1640625 0.503907,-0.3164062 0.828126,-0.453125 0.320312,-0.1328125 0.695312,-0.203125 1.125,-0.203125 0.40625,0 0.78125,0.070312 1.125,0.203125 0.34375,0.1367188 0.640625,0.328125 0.890625,0.578125 0.25,0.2421875 0.441406,0.5273438 0.578125,0.8593751 0.132812,0.3359375 0.203125,0.6953125 0.203125,1.078125 v 4.48437519349 h -1.03125 V -0.95371505 c -0.148438,0.21093751 -0.335938,0.39843752 -0.5625,0.56250003 -0.1875,0.13671875 -0.429688,0.26171876 -0.71875,0.37500001 -0.28125,0.10156251 -0.617188,0.15625001 -1,0.15625001 z m 0,-0.95312504 c 0.332031,0 0.640625,-0.0507813 0.921875,-0.15625001 0.28125,-0.11328125 0.519531,-0.27343755 0.71875,-0.48437505 0.207031,-0.2070312 0.363281,-0.453125 0.46875,-0.734375 0.113281,-0.2890625 0.171875,-0.6132813 0.171875,-0.96875 v -0.4531251 l -2.421875,0.4531251 c -0.886719,0.1679687 -1.328126,0.5859375 -1.328126,1.25 0,0.2929688 0.125,0.546875 0.375,0.765625 0.250001,0.21875006 0.613282,0.32812506 1.093751,0.32812506 z m 6.03125,-5.29687526 h -1.109375 v -0.953125 h 1.109375 v -1.3125001 c 0,-0.6640625 0.171875,-1.1757813 0.515625,-1.53125 0.34375,-0.3515626 0.804687,-0.5312496 1.390625,-0.5312496 0.144531,0 0.28125,0.01563 0.40625,0.04687 0.125,0.02344 0.234375,0.04297 0.328125,0.0625 0.113281,0.04297 0.210937,0.07813 0.296875,0.109375 v 0.9531246 c -0.08594,-0.03125 -0.179688,-0.0625 -0.28125,-0.09375 -0.08594,-0.03125 -0.1875,-0.054687 -0.3125,-0.078125 -0.117188,-0.03125 -0.234375,-0.046875 -0.359375,-0.046875 -0.292969,0 -0.527344,0.09375 -0.703125,0.28125 -0.167969,0.1796875 -0.25,0.453125 -0.25,0.828125 v 1.3125001 h 1.6875 v 0.953125 h -1.6875 v 6.10937529349 h -1.03125 z m 7.417969,6.2500003 c -0.5,0 -0.96875,-0.09375 -1.40625,-0.28125001 -0.4375,-0.18750001 -0.820313,-0.44140627 -1.140625,-0.76562503 -0.324219,-0.33203126 -0.585938,-0.72265626 -0.78125,-1.17187506 -0.1875,-0.4453125 -0.28125,-0.9296875 -0.28125,-1.4531251 0,-0.5078125 0.09375,-0.9882812 0.28125,-1.4375 0.195312,-0.4453125 0.457031,-0.8320313 0.78125,-1.1562501 0.320312,-0.3320312 0.703125,-0.59375 1.140625,-0.78125 0.4375,-0.1953125 0.90625,-0.296875 1.40625,-0.296875 0.5,0 0.96875,0.1015625 1.40625,0.296875 0.4375,0.1875 0.816406,0.4492188 1.140625,0.78125 0.320312,0.3242188 0.578125,0.7109376 0.765625,1.1562501 0.1875,0.4492188 0.28125,0.9296875 0.28125,1.4375 0,0.5234376 -0.09375,1.0078126 -0.28125,1.4531251 -0.1875,0.4492188 -0.445313,0.8398438 -0.765625,1.17187506 -0.324219,0.32421876 -0.703125,0.57812502 -1.140625,0.76562503 -0.4375,0.18750001 -0.90625,0.28125001 -1.40625,0.28125001 z m 0,-0.95312504 c 0.351562,0 0.679687,-0.0664063 0.984375,-0.20312496 0.3125,-0.1328126 0.582031,-0.3203126 0.8125,-0.5625001 0.238281,-0.25 0.425781,-0.5390625 0.5625,-0.875 0.144531,-0.3320313 0.21875,-0.6914063 0.21875,-1.0781251 0,-0.3828125 -0.07422,-0.7421875 -0.21875,-1.078125 -0.136719,-0.3320313 -0.324219,-0.6171875 -0.5625,-0.859375 -0.230469,-0.25 -0.5,-0.4414063 -0.8125,-0.5781251 -0.304688,-0.1328125 -0.632813,-0.203125 -0.984375,-0.203125 -0.355469,0 -0.6875,0.070312 -1,0.203125 -0.304688,0.1367188 -0.574219,0.3281251 -0.8125,0.5781251 -0.230469,0.2421875 -0.417969,0.5273437 -0.5625,0.859375 -0.136719,0.3359375 -0.203125,0.6953125 -0.203125,1.078125 0,0.3867188 0.06641,0.7460938 0.203125,1.0781251 0.144531,0.3359375 0.332031,0.6210938 0.5625,0.859375 0.238281,0.2421875 0.507812,0.4335938 0.8125,0.5781251 0.3125,0.13671871 0.644531,0.20312496 1,0.20312496 z m 5.503906,-9.48437496 h 1.03125 V -5.9000651e-4 h -1.03125 z m 6.382813,10.4375 c -0.480469,0 -0.929687,-0.08984375 -1.34375,-0.26562501 -0.417969,-0.17578126 -0.78125,-0.42578127 -1.09375,-0.75000003 -0.3125,-0.33203126 -0.5625,-0.72265626 -0.75,-1.17187506 -0.179688,-0.4570313 -0.265625,-0.953125 -0.265625,-1.4843751 0,-0.53125 0.08594,-1.0195312 0.265625,-1.46875 0.1875,-0.4453125 0.4375,-0.8320313 0.75,-1.1562501 0.3125,-0.3320312 0.675781,-0.5859375 1.09375,-0.765625 0.414063,-0.1875 0.863281,-0.28125 1.34375,-0.28125 0.414063,0 0.769531,0.0625 1.0625,0.1875 0.300781,0.1171875 0.554688,0.25 0.765625,0.40625 0.238281,0.1679688 0.441406,0.359375 0.609375,0.578125 v -4.2656247 h 1.03125 V -5.9000651e-4 h -1.03125 V -1.03184 c -0.167969,0.21874996 -0.371094,0.41796872 -0.609375,0.59374998 -0.210937,0.1484375 -0.464844,0.28125001 -0.765625,0.40625001 -0.292969,0.11328126 -0.648437,0.17187501 -1.0625,0.17187501 z m 0,-0.95312504 c 0.320313,0 0.625,-0.0664063 0.90625,-0.20312496 0.289063,-0.1328126 0.546875,-0.3203126 0.765625,-0.5625001 0.226563,-0.25 0.410156,-0.5390625 0.546875,-0.875 0.144531,-0.3320313 0.21875,-0.6914063 0.21875,-1.0781251 0,-0.3828125 -0.07422,-0.7421875 -0.21875,-1.078125 -0.136719,-0.3320313 -0.320312,-0.6171875 -0.546875,-0.859375 -0.21875,-0.25 -0.476562,-0.4414063 -0.765625,-0.5781251 -0.28125,-0.1328125 -0.585937,-0.203125 -0.90625,-0.203125 -0.335937,0 -0.648437,0.070312 -0.9375,0.203125 -0.292969,0.125 -0.546875,0.3125001 -0.765625,0.5625001 -0.21875,0.2421875 -0.398437,0.5273437 -0.53125,0.859375 -0.125,0.3359375 -0.1875,0.6992188 -0.1875,1.09375 0,0.4062501 0.0625,0.7773438 0.1875,1.1093751 0.132813,0.3359375 0.3125,0.6210938 0.53125,0.859375 0.21875,0.2421875 0.472656,0.4296875 0.765625,0.5625001 0.289063,0.12499996 0.601563,0.18749996 0.9375,0.18749996 z m 6.25,0.95312504 c -0.230468,0 -0.414062,-0.0625 -0.546875,-0.18750001 -0.125,-0.1328125 -0.1875,-0.31640626 -0.1875,-0.54687502 0,-0.21875001 0.0625,-0.39453127 0.1875,-0.53125007 0.132813,-0.1328125 0.316407,-0.203125 0.546875,-0.203125 0.21875,0 0.394532,0.070312 0.53125,0.203125 0.132813,0.1367188 0.203125,0.31250006 0.203125,0.53125007 0,0.23046876 -0.07031,0.41406252 -0.203125,0.54687502 C 96.749647,0.077535 96.573865,0.140035 96.355115,0.140035 Z m 4.695315,0 c -0.36719,0 -0.70313,-0.05859375 -1.01563,-0.17187501 -0.304685,-0.11328125 -0.562497,-0.26562501 -0.781247,-0.45312502 -0.21875,-0.1953125 -0.390625,-0.42187501 -0.515625,-0.67187507 -0.125,-0.25 -0.1875,-0.5 -0.1875,-0.75 0,-0.59375 0.175781,-1.0664063 0.53125,-1.421875 0.351562,-0.3632813 0.863281,-0.6015626 1.531252,-0.7187501 l 2.71875,-0.4375 c 0,-0.5195313 -0.16797,-0.9414063 -0.5,-1.265625 -0.32422,-0.3320313 -0.7461,-0.5000001 -1.26563,-0.5000001 -0.3125,0 -0.59375,0.058594 -0.84375,0.171875 -0.24218,0.1054688 -0.44531,0.21875 -0.60937,0.3437501 -0.199221,0.15625 -0.375002,0.328125 -0.531252,0.515625 l -0.65625,-0.6562501 c 0.195312,-0.25 0.425781,-0.4726562 0.6875,-0.671875 0.226562,-0.1640625 0.503902,-0.3164062 0.828122,-0.453125 0.32032,-0.1328125 0.69532,-0.203125 1.125,-0.203125 0.40625,0 0.78125,0.070312 1.125,0.203125 0.34375,0.1367188 0.64063,0.328125 0.89063,0.578125 0.25,0.2421875 0.4414,0.5273438 0.57812,0.8593751 0.13282,0.3359375 0.20313,0.6953125 0.20313,1.078125 v 4.48437519349 h -1.03125 V -0.95371505 c -0.14844,0.21093751 -0.33594,0.39843752 -0.5625,0.56250003 -0.1875,0.13671875 -0.42969,0.26171876 -0.71875,0.37500001 -0.28125,0.10156251 -0.61719,0.15625001 -1,0.15625001 z m 0,-0.95312504 c 0.33203,0 0.64062,-0.0507813 0.92187,-0.15625001 0.28125,-0.11328125 0.51953,-0.27343755 0.71875,-0.48437505 0.20703,-0.2070312 0.36328,-0.453125 0.46875,-0.734375 0.11328,-0.2890625 0.17188,-0.6132813 0.17188,-0.96875 v -0.4531251 l -2.42188,0.4531251 c -0.88672,0.1679687 -1.328122,0.5859375 -1.328122,1.25 0,0.2929688 0.125,0.546875 0.375,0.765625 0.250002,0.21875006 0.613282,0.32812506 1.093752,0.32812506 z m 5.65234,-6.25000026 h 1.03125 v 7.06250029349 h -1.03125 z m 0.51563,-1.6875001 c -0.1875,0 -0.34375,-0.0625 -0.46875,-0.1875 -0.125,-0.125 -0.1875,-0.28125 -0.1875,-0.46875 0,-0.1875 0.0625,-0.34375 0.1875,-0.46875 0.125,-0.1328126 0.28125,-0.2031246 0.46875,-0.2031246 0.1875,0 0.34375,0.07031 0.46875,0.2031246 0.13281,0.125 0.20312,0.28125 0.20312,0.46875 0,0.1875 -0.0703,0.34375 -0.20312,0.46875 -0.125,0.125 -0.28125,0.1875 -0.46875,0.1875 z m 0,0"
         style="fill:#ffffff;fill-opacity:1;fill-rule:nonzero;stroke:none"
         aria-label="https://rnafold.ai"
         transform="translate(106.5277,1066.2843)" />
    </g>
    <g
       id="g43">
      <g
         id="g44" />
      <path
         id="path44"
         d="m 3.1574824,0.139106 c -0.3671875,0 -0.703125,-0.05859375 -1.015625,-0.171875 -0.3046876,-0.11328126 -0.5625001,-0.26562501 -0.7812501,-0.45312502 -0.21875,-0.19531251 -0.39062499,-0.42187502 -0.515625,-0.67187508 -0.125,-0.25 -0.1875,-0.5 -0.1875,-0.75 0,-0.59375 0.17578125,-1.0664063 0.53125,-1.421875 0.3515625,-0.3632813 0.8632813,-0.6015626 1.5312501,-0.7187501 l 2.7187501,-0.4375 c 0,-0.5195313 -0.1679688,-0.9414063 -0.5,-1.265625 -0.3242188,-0.3320313 -0.7460938,-0.5000001 -1.2656251,-0.5000001 -0.3125,0 -0.59375,0.058594 -0.84375,0.171875 -0.2421875,0.1054688 -0.4453125,0.2187501 -0.609375,0.3437501 -0.1992188,0.15625 -0.3750001,0.328125 -0.5312501,0.515625 l -0.65625,-0.65625 c 0.1953125,-0.2500001 0.4257813,-0.4726563 0.6875,-0.6718751 0.2265626,-0.1640625 0.5039063,-0.3164062 0.8281251,-0.453125 0.3203125,-0.1328125 0.6953125,-0.203125 1.125,-0.203125 0.40625,0 0.7812501,0.070312 1.1250001,0.203125 0.34375,0.1367188 0.640625,0.328125 0.890625,0.578125 0.25,0.2421875 0.4414063,0.5273438 0.578125,0.8593751 0.1328125,0.3359375 0.203125,0.6953125 0.203125,1.078125 v 4.4843752 h -1.03125 v -0.95312504 c -0.1484375,0.21093751 -0.3359375,0.39843751 -0.5625,0.56250002 -0.1875,0.13671876 -0.4296875,0.26171876 -0.7187501,0.37500002 -0.28125,0.1015625 -0.6171875,0.15625 -1,0.15625 z m 0,-0.95312504 c 0.3320313,0 0.640625,-0.0507813 0.921875,-0.15625 0.2812501,-0.11328126 0.5195313,-0.27343756 0.7187501,-0.48437506 0.2070312,-0.2070312 0.3632812,-0.453125 0.46875,-0.734375 0.1132812,-0.2890625 0.171875,-0.6132813 0.171875,-0.96875 v -0.4531251 l -2.4218751,0.4531251 c -0.8867188,0.1679687 -1.3281251,0.5859375 -1.3281251,1.25 0,0.2929688 0.125,0.546875 0.3750001,0.7656251 0.25,0.21874996 0.6132812,0.32812496 1.09375,0.32812496 z m 5.730469,-9.48437496 h 1.03125 v 10.296875 h -1.03125 z m 6.4609376,10.4375 c -0.480469,0 -0.933594,-0.09375 -1.359375,-0.28125001 -0.429687,-0.18750001 -0.804687,-0.44140627 -1.125,-0.76562503 -0.324219,-0.33203126 -0.578125,-0.72265626 -0.765625,-1.17187506 -0.1875,-0.4453125 -0.28125,-0.9296875 -0.28125,-1.453125 0,-0.5078126 0.09375,-0.9882813 0.28125,-1.4375001 0.1875,-0.4453125 0.4375,-0.8320313 0.75,-1.1562501 0.320313,-0.3320312 0.691406,-0.59375 1.109375,-0.78125 0.414063,-0.1953125 0.851563,-0.296875 1.3125,-0.296875 0.488281,0 0.9375,0.089844 1.34375,0.265625 0.414063,0.1796875 0.773438,0.421875 1.078125,0.734375 0.300782,0.3046876 0.535157,0.6718751 0.703125,1.1093751 0.175782,0.4375 0.265625,0.9140625 0.265625,1.421875 0,0.074219 -0.0078,0.1484376 -0.01563,0.2187501 -0.01172,0.0625 -0.02344,0.1171875 -0.03125,0.15625 -0.01172,0.0625 -0.02344,0.1171875 -0.03125,0.15625 l -5.734375,-0.015625 c 0.01953,0.3125 0.09766,0.609375 0.234375,0.890625 0.132813,0.28125 0.316406,0.53125 0.546875,0.75 0.226563,0.21875 0.488281,0.3906251 0.78125,0.5156251 0.289063,0.12499996 0.601563,0.18749996 0.9375,0.18749996 0.375,0 0.703125,-0.0546875 0.984375,-0.171875 0.28125,-0.12499996 0.515625,-0.25781256 0.703125,-0.40625006 0.226563,-0.1757812 0.425781,-0.375 0.59375,-0.59375 l 0.65625,0.65625 c -0.199218,0.2812501 -0.449218,0.52734381 -0.75,0.73437507 -0.25,0.18750001 -0.558594,0.35937502 -0.921875,0.51562502 C 16.247327,0.06488725 15.825452,0.139106 15.348889,0.139106 Z m 2.28125,-4.1875002 c -0.04297,-0.3125 -0.132812,-0.6015625 -0.265625,-0.875 -0.125,-0.2695313 -0.292969,-0.5 -0.5,-0.6875 -0.210937,-0.1953125 -0.449219,-0.3515626 -0.71875,-0.4687501 -0.261719,-0.1132812 -0.554687,-0.171875 -0.875,-0.171875 -0.3125,0 -0.609375,0.0625 -0.890625,0.1875 -0.273437,0.1171876 -0.515625,0.2773438 -0.734375,0.4843751 -0.21875,0.1992187 -0.398437,0.4335937 -0.53125,0.703125 -0.136719,0.2617188 -0.226562,0.5390625 -0.265625,0.828125 z m 4.542969,0.375 -2.421875,-3.3906251 h 1.25 l 1.84375,2.5781251 1.828125,-2.5781251 h 1.25 l -2.421875,3.3906251 2.65625,3.6718752 h -1.25 l -2.0625,-2.8593751 -2.0625,2.8593751 h -1.25 z M 32.97389,1.9047311 c -0.75,0 -1.464844,-0.1523438 -2.140625,-0.453125 -0.679688,-0.2929688 -1.273438,-0.69531257 -1.78125,-1.20312509 -0.511719,-0.50781252 -0.917969,-1.10156255 -1.21875,-1.78125011 -0.292969,-0.6757812 -0.4375,-1.390625 -0.4375,-2.1406251 0,-0.7578125 0.144531,-1.4765625 0.4375,-2.15625 0.300781,-0.6757813 0.707031,-1.2656251 1.21875,-1.7656251 0.507812,-0.5078125 1.101562,-0.9140626 1.78125,-1.2187501 0.675781,-0.3007812 1.390625,-0.453125 2.140625,-0.453125 0.789062,0 1.523437,0.1484375 2.203125,0.4375 0.6875,0.28125 1.28125,0.6640626 1.78125,1.1406251 0.5,0.4804687 0.890625,1.0429688 1.171875,1.6875 0.289063,0.6367188 0.4375,1.3125001 0.4375,2.0312501 0,0.5312501 -0.0625,0.9921876 -0.1875,1.3750001 -0.117187,0.3867188 -0.277344,0.7109375 -0.484375,0.96875 -0.210937,0.25 -0.453125,0.4375 -0.734375,0.5625001 -0.28125,0.12499996 -0.574219,0.18749996 -0.875,0.18749996 -0.304687,0 -0.558594,-0.0507813 -0.765625,-0.15624996 -0.199219,-0.1015625 -0.359375,-0.2226563 -0.484375,-0.3593751 -0.148438,-0.15625 -0.265625,-0.328125 -0.359375,-0.515625 -0.117188,0.1875 -0.261719,0.359375 -0.4375,0.515625 -0.15625,0.1367188 -0.359375,0.2578126 -0.609375,0.3593751 -0.242188,0.10546871 -0.53125,0.15624996 -0.875,0.15624996 -0.335938,0 -0.652344,-0.0664063 -0.953125,-0.20312496 -0.292969,-0.1445313 -0.554688,-0.3359376 -0.78125,-0.5781251 -0.230469,-0.25 -0.417969,-0.5390625 -0.5625,-0.875 -0.136719,-0.3320313 -0.203125,-0.6914063 -0.203125,-1.0781251 0,-0.375 0.06641,-0.7265625 0.203125,-1.0625 0.144531,-0.3320313 0.332031,-0.6171875 0.5625,-0.859375 0.226562,-0.25 0.488281,-0.4414063 0.78125,-0.5781251 0.300781,-0.1445312 0.617187,-0.21875 0.953125,-0.21875 0.3125,0 0.582031,0.042969 0.8125,0.125 0.226562,0.085937 0.410156,0.1835938 0.546875,0.2968751 0.164062,0.1171875 0.300781,0.2460937 0.40625,0.390625 v -0.7343751 h 0.890625 v 3.3593752 c 0,0.3984375 0.07813,0.6835938 0.234375,0.859375 0.15625,0.1796875 0.367188,0.265625 0.640625,0.265625 0.175781,0 0.34375,-0.035156 0.5,-0.109375 0.15625,-0.082031 0.296875,-0.2070312 0.421875,-0.375 0.125,-0.1757813 0.222656,-0.40625 0.296875,-0.6875 0.07031,-0.28125 0.109375,-0.6250001 0.109375,-1.0312501 0,-0.6132812 -0.117187,-1.1914063 -0.34375,-1.734375 -0.230469,-0.5390626 -0.554687,-1.0078126 -0.96875,-1.4062501 -0.40625,-0.3945313 -0.898438,-0.703125 -1.46875,-0.921875 -0.5625,-0.2265625 -1.183594,-0.3437501 -1.859375,-0.3437501 -0.648438,0 -1.25,0.1210938 -1.8125,0.3593751 -0.554688,0.2421875 -1.042969,0.5742187 -1.46875,1 -0.417969,0.4296875 -0.746094,0.9296875 -0.984375,1.5000001 -0.242188,0.5742187 -0.359375,1.1875 -0.359375,1.84375 0,0.6679688 0.117187,1.2890626 0.359375,1.8593751 0.238281,0.5625 0.566406,1.05859382 0.984375,1.48437508 0.425781,0.42578127 0.914062,0.75781254 1.46875,1.00000005 0.5625,0.23828126 1.164062,0.35937497 1.8125,0.35937497 0.445312,0 0.84375,-0.0546875 1.1875,-0.15624997 0.34375,-0.09375 0.632812,-0.19921875 0.875,-0.31250001 0.28125,-0.13671875 0.523438,-0.29687501 0.734375,-0.48437502 l 0.515625,0.65625003 c -0.242187,0.21875001 -0.523437,0.41406247 -0.84375,0.59375007 -0.292969,0.1445312 -0.648438,0.2734375 -1.0625,0.390625 -0.40625,0.125 -0.875,0.1875 -1.40625,0.1875 z m -0.140625,-3.6718752 c 0.476562,0 0.878906,-0.1640625 1.203125,-0.5 0.320312,-0.3320313 0.484375,-0.78125 0.484375,-1.3437501 0,-0.5507812 -0.164063,-0.9921875 -0.484375,-1.328125 -0.324219,-0.3320313 -0.726563,-0.5 -1.203125,-0.5 -0.230469,0 -0.445313,0.046875 -0.640625,0.140625 -0.1875,0.085937 -0.355469,0.2109375 -0.5,0.375 -0.148438,0.15625 -0.261719,0.3515625 -0.34375,0.578125 -0.08594,0.21875 -0.125,0.4648438 -0.125,0.734375 0,0.2812501 0.03906,0.5390626 0.125,0.7656251 0.08203,0.21875 0.195312,0.4140625 0.34375,0.578125 0.144531,0.15625 0.3125,0.28125 0.5,0.375 0.195312,0.085937 0.410156,0.125 0.640625,0.125 z m 7.921875,-5.2968752 h 1.03125 v 0.953125 c 0.15625,-0.1875 0.347657,-0.3632812 0.578125,-0.53125 0.195313,-0.1445312 0.4375,-0.2734375 0.71875,-0.390625 0.289063,-0.1132812 0.644532,-0.171875 1.0625,-0.171875 h 0.296875 v 1.03125 h -0.453125 c -0.292968,0 -0.574218,0.054687 -0.84375,0.15625 -0.261718,0.1054688 -0.496093,0.2578126 -0.703125,0.4531251 -0.199218,0.1992187 -0.359375,0.4375 -0.484375,0.71875 -0.117187,0.28125 -0.171875,0.6015625 -0.171875,0.953125 v 3.8906252 h -1.03125 z m 5.066407,0 h 1.03125 v 1.03125 c 0.144531,-0.21875 0.332031,-0.4101562 0.5625,-0.578125 0.195312,-0.15625 0.429687,-0.2890625 0.703125,-0.40625 0.28125,-0.125 0.617187,-0.1875 1.015625,-0.1875 0.414062,0 0.800781,0.074219 1.15625,0.21875 0.351562,0.1367188 0.65625,0.3359375 0.90625,0.59375 0.25,0.2617188 0.441406,0.5781251 0.578125,0.9531251 0.144531,0.375 0.21875,0.7929688 0.21875,1.25 v 4.1875002 h -1.015625 v -4.1875002 c 0,-0.625 -0.183594,-1.125 -0.546875,-1.5 -0.355469,-0.3750001 -0.8125,-0.5625001 -1.375,-0.5625001 -0.3125,0 -0.605469,0.058594 -0.875,0.171875 -0.273438,0.1171875 -0.507813,0.2773438 -0.703125,0.4843751 -0.1875,0.1992187 -0.339844,0.4453125 -0.453125,0.734375 -0.117188,0.2929688 -0.171875,0.6171875 -0.171875,0.96875 v 3.8906252 h -1.03125 z M 56.325453,0.139106 c -0.367187,0 -0.703125,-0.05859375 -1.015625,-0.171875 -0.304687,-0.11328126 -0.5625,-0.26562501 -0.78125,-0.45312502 -0.21875,-0.19531251 -0.390625,-0.42187502 -0.515625,-0.67187508 -0.125,-0.25 -0.1875,-0.5 -0.1875,-0.75 0,-0.59375 0.175782,-1.0664063 0.53125,-1.421875 0.351563,-0.3632813 0.863282,-0.6015626 1.53125,-0.7187501 l 2.71875,-0.4375 c 0,-0.5195313 -0.167968,-0.9414063 -0.5,-1.265625 -0.324218,-0.3320313 -0.746093,-0.5000001 -1.265625,-0.5000001 -0.3125,0 -0.59375,0.058594 -0.84375,0.171875 -0.242187,0.1054688 -0.445312,0.2187501 -0.609375,0.3437501 -0.199218,0.15625 -0.375,0.328125 -0.53125,0.515625 l -0.65625,-0.65625 c 0.195313,-0.2500001 0.425782,-0.4726563 0.6875,-0.6718751 0.226563,-0.1640625 0.503907,-0.3164062 0.828125,-0.453125 0.320313,-0.1328125 0.695313,-0.203125 1.125,-0.203125 0.40625,0 0.78125,0.070312 1.125,0.203125 0.34375,0.1367188 0.640625,0.328125 0.890625,0.578125 0.25,0.2421875 0.441407,0.5273438 0.578125,0.8593751 0.132813,0.3359375 0.203126,0.6953125 0.203126,1.078125 v 4.4843752 h -1.031251 v -0.95312504 c -0.148437,0.21093751 -0.335937,0.39843751 -0.5625,0.56250002 -0.1875,0.13671876 -0.429687,0.26171876 -0.71875,0.37500002 -0.28125,0.1015625 -0.617187,0.15625 -1,0.15625 z m 0,-0.95312504 c 0.332032,0 0.640625,-0.0507813 0.921875,-0.15625 0.28125,-0.11328126 0.519532,-0.27343756 0.71875,-0.48437506 0.207032,-0.2070312 0.363282,-0.453125 0.46875,-0.734375 0.113282,-0.2890625 0.171875,-0.6132813 0.171875,-0.96875 v -0.4531251 l -2.421875,0.4531251 c -0.886718,0.1679687 -1.328125,0.5859375 -1.328125,1.25 0,0.2929688 0.125,0.546875 0.375,0.7656251 0.25,0.21874996 0.613282,0.32812496 1.09375,0.32812496 z m 6.027344,-5.29687526 h -1.109375 v -0.953125 h 1.109375 v -1.3125001 c 0,-0.6640625 0.171875,-1.1757812 0.515625,-1.53125 0.34375,-0.3515626 0.804688,-0.5312496 1.390625,-0.5312496 0.144532,0 0.28125,0.01563 0.40625,0.04687 0.125,0.02344 0.234375,0.04297 0.328125,0.0625 0.113282,0.04297 0.210938,0.07813 0.296875,0.109375 v 0.9531246 c -0.08594,-0.03125 -0.179687,-0.0625 -0.28125,-0.09375 -0.08594,-0.03125 -0.1875,-0.054687 -0.3125,-0.078125 -0.117187,-0.03125 -0.234375,-0.046875 -0.359375,-0.046875 -0.292968,0 -0.527343,0.09375 -0.703125,0.28125 -0.167968,0.1796875 -0.25,0.453125 -0.25,0.828125 v 1.3125001 h 1.6875 v 0.953125 h -1.6875 v 6.1093753 h -1.03125 z m 7.417969,6.2500003 c -0.5,0 -0.96875,-0.09375 -1.40625,-0.28125001 -0.4375,-0.18750001 -0.820312,-0.44140627 -1.140625,-0.76562503 -0.324218,-0.33203126 -0.585937,-0.72265626 -0.78125,-1.17187506 -0.1875,-0.4453125 -0.28125,-0.9296875 -0.28125,-1.453125 0,-0.5078126 0.09375,-0.9882813 0.28125,-1.4375001 0.195313,-0.4453125 0.457032,-0.8320313 0.78125,-1.1562501 0.320313,-0.3320312 0.703125,-0.59375 1.140625,-0.78125 0.4375,-0.1953125 0.90625,-0.296875 1.40625,-0.296875 0.5,0 0.96875,0.1015625 1.40625,0.296875 0.437501,0.1875 0.816407,0.4492188 1.140626,0.78125 0.320312,0.3242188 0.578125,0.7109376 0.765625,1.1562501 0.1875,0.4492188 0.28125,0.9296875 0.28125,1.4375001 0,0.5234375 -0.09375,1.0078125 -0.28125,1.453125 -0.1875,0.4492188 -0.445313,0.8398438 -0.765625,1.17187506 -0.324219,0.32421876 -0.703125,0.57812502 -1.140626,0.76562503 -0.4375,0.18750001 -0.90625,0.28125001 -1.40625,0.28125001 z m 0,-0.95312504 c 0.351563,0 0.679688,-0.0664063 0.984375,-0.20312496 0.3125,-0.1328125 0.582032,-0.3203126 0.812501,-0.5625001 0.238281,-0.25 0.425781,-0.5390625 0.5625,-0.875 0.144531,-0.3320313 0.21875,-0.6914063 0.21875,-1.078125 0,-0.3828126 -0.07422,-0.7421876 -0.21875,-1.0781251 -0.136719,-0.3320313 -0.324219,-0.6171875 -0.5625,-0.859375 -0.230469,-0.25 -0.500001,-0.4414063 -0.812501,-0.5781251 -0.304687,-0.1328125 -0.632812,-0.203125 -0.984375,-0.203125 -0.355468,0 -0.6875,0.070312 -1,0.203125 -0.304687,0.1367188 -0.574218,0.3281251 -0.8125,0.5781251 -0.230468,0.2421875 -0.417968,0.5273437 -0.5625,0.859375 -0.136718,0.3359375 -0.203125,0.6953125 -0.203125,1.0781251 0,0.3867187 0.06641,0.7460937 0.203125,1.078125 0.144532,0.3359375 0.332032,0.6210938 0.5625,0.859375 0.238282,0.2421875 0.507813,0.4335938 0.8125,0.5781251 0.3125,0.13671871 0.644532,0.20312496 1,0.20312496 z m 5.503907,-9.48437496 h 1.03125 v 10.296875 h -1.03125 z m 6.386719,10.4375 c -0.480469,0 -0.929688,-0.08984375 -1.34375,-0.26562501 -0.417969,-0.17578125 -0.78125,-0.42578126 -1.09375,-0.75000003 -0.3125,-0.33203126 -0.5625,-0.72265626 -0.75,-1.17187506 -0.179688,-0.4570313 -0.265625,-0.953125 -0.265625,-1.484375 0,-0.5312501 0.08594,-1.0195313 0.265625,-1.4687501 0.1875,-0.4453125 0.4375,-0.8320313 0.75,-1.1562501 0.3125,-0.3320312 0.675781,-0.5859375 1.09375,-0.765625 0.414062,-0.1875 0.863281,-0.28125 1.34375,-0.28125 0.414062,0 0.769531,0.0625 1.0625,0.1875 0.300781,0.1171875 0.554687,0.25 0.765625,0.40625 0.238281,0.1679688 0.441406,0.359375 0.609375,0.578125 v -4.2656247 h 1.03125 v 10.296875 h -1.03125 v -1.03125 c -0.167969,0.21874996 -0.371094,0.41796872 -0.609375,0.59374998 -0.210938,0.14843751 -0.464844,0.28125001 -0.765625,0.40625002 -0.292969,0.11328125 -0.648438,0.171875 -1.0625,0.171875 z m 0,-0.95312504 c 0.320312,0 0.625,-0.0664063 0.90625,-0.20312496 0.289062,-0.1328125 0.546875,-0.3203126 0.765625,-0.5625001 0.226563,-0.25 0.410156,-0.5390625 0.546875,-0.875 0.144531,-0.3320313 0.21875,-0.6914063 0.21875,-1.078125 0,-0.3828126 -0.07422,-0.7421876 -0.21875,-1.0781251 -0.136719,-0.3320313 -0.320312,-0.6171875 -0.546875,-0.859375 -0.21875,-0.25 -0.476563,-0.4414063 -0.765625,-0.5781251 -0.28125,-0.1328125 -0.585938,-0.203125 -0.90625,-0.203125 -0.335938,0 -0.648438,0.070312 -0.9375,0.203125 -0.292969,0.1250001 -0.546875,0.3125001 -0.765625,0.5625001 -0.21875,0.2421875 -0.398438,0.5273437 -0.53125,0.859375 -0.125,0.3359375 -0.1875,0.6992188 -0.1875,1.0937501 0,0.40625 0.0625,0.7773437 0.1875,1.109375 0.132812,0.3359375 0.3125,0.6210938 0.53125,0.859375 0.21875,0.2421875 0.472656,0.4296876 0.765625,0.5625001 0.289062,0.12499996 0.601562,0.18749996 0.9375,0.18749996 z m 6.25,0.95312504 c -0.230469,0 -0.414062,-0.0625 -0.546875,-0.1875 -0.125,-0.13281251 -0.1875,-0.31640627 -0.1875,-0.54687503 0,-0.21875001 0.0625,-0.39453126 0.1875,-0.53124997 0.132813,-0.1328126 0.316406,-0.2031251 0.546875,-0.2031251 0.21875,0 0.394531,0.070312 0.53125,0.2031251 0.132813,0.13671871 0.203125,0.31249996 0.203125,0.53124997 0,0.23046876 -0.07031,0.41406252 -0.203125,0.54687503 -0.136719,0.125 -0.3125,0.1875 -0.53125,0.1875 z m 4.691407,0 c -0.367188,0 -0.703125,-0.05859375 -1.015625,-0.171875 -0.304688,-0.11328126 -0.5625,-0.26562501 -0.78125,-0.45312502 -0.21875,-0.19531251 -0.390625,-0.42187502 -0.515625,-0.67187508 -0.125,-0.25 -0.1875,-0.5 -0.1875,-0.75 0,-0.59375 0.175781,-1.0664063 0.53125,-1.421875 0.351562,-0.3632813 0.863281,-0.6015626 1.53125,-0.7187501 l 2.71875,-0.4375 c 0,-0.5195313 -0.167969,-0.9414063 -0.5,-1.265625 -0.324219,-0.3320313 -0.746094,-0.5000001 -1.265625,-0.5000001 -0.3125,0 -0.59375,0.058594 -0.84375,0.171875 -0.242188,0.1054688 -0.445313,0.2187501 -0.609375,0.3437501 -0.199219,0.15625 -0.375,0.328125 -0.53125,0.515625 l -0.65625,-0.65625 c 0.195312,-0.2500001 0.425781,-0.4726563 0.6875,-0.6718751 0.226562,-0.1640625 0.503906,-0.3164062 0.828125,-0.453125 0.320312,-0.1328125 0.695312,-0.203125 1.125,-0.203125 0.40625,0 0.78125,0.070312 1.125,0.203125 0.34375,0.1367188 0.640625,0.328125 0.890625,0.578125 0.25,0.2421875 0.441406,0.5273438 0.578125,0.8593751 0.132812,0.3359375 0.203125,0.6953125 0.203125,1.078125 v 4.4843752 h -1.03125 v -0.95312504 c -0.148438,0.21093751 -0.335938,0.39843751 -0.5625,0.56250002 -0.1875,0.13671876 -0.429688,0.26171876 -0.71875,0.37500002 -0.28125,0.1015625 -0.617188,0.15625 -1,0.15625 z m 0,-0.95312504 c 0.332031,0 0.640625,-0.0507813 0.921875,-0.15625 0.28125,-0.11328126 0.519531,-0.27343756 0.71875,-0.48437506 0.207031,-0.2070312 0.363281,-0.453125 0.46875,-0.734375 0.113281,-0.2890625 0.171875,-0.6132813 0.171875,-0.96875 v -0.4531251 l -2.421875,0.4531251 c -0.886719,0.1679687 -1.328125,0.5859375 -1.328125,1.25 0,0.2929688 0.125,0.546875 0.375,0.7656251 0.25,0.21874996 0.613281,0.32812496 1.09375,0.32812496 z m 5.652344,-6.25000026 h 1.03125 v 7.0625003 h -1.03125 z m 0.515625,-1.6875001 c -0.1875,0 -0.34375,-0.0625 -0.46875,-0.1875 -0.125,-0.125 -0.1875,-0.28125 -0.1875,-0.46875 0,-0.1875 0.0625,-0.34375 0.1875,-0.46875 0.125,-0.1328126 0.28125,-0.2031246 0.46875,-0.2031246 0.1875,0 0.34375,0.07031 0.46875,0.2031246 0.132812,0.125 0.203125,0.28125 0.203125,0.46875 0,0.1875 -0.07031,0.34375 -0.203125,0.46875 -0.125,0.125 -0.28125,0.1875 -0.46875,0.1875 z m 0,0"
         style="fill:#ffffff;fill-opacity:1;fill-rule:nonzero;stroke:none"
         aria-label="alex@rnafold.ai"
         transform="translate(536.86596,1066.3946)" />
    </g>
    <g
       id="g45">
      <g
         id="g46" />
      <path
         id="path46"
         d="M 3.3118114,-3.8262824 H 0.59306129 v -0.953125 H 3.3118114 v -2.7968752 h 0.953125 v 2.7968752 h 2.7187502 v 0.953125 H 4.2649364 v 2.7968751 h -0.953125 z m 8.5976566,3.96875016 c -0.523438,0 -1,-0.08593751 -1.4375,-0.25000001 C 10.04228,-0.28331351 9.6750929,-0.52159477 9.3625929,-0.82628228 9.0579054,-1.1270635 8.8196241,-1.4825323 8.6438429,-1.8887823 8.4641554,-2.3028448 8.3782179,-2.7520636 8.3782179,-3.2325324 c 0,-0.3125 0.035156,-0.6015625 0.109375,-0.875 0.070312,-0.2695313 0.15625,-0.5039063 0.25,-0.7031251 0.1132812,-0.2265625 0.2382812,-0.4375 0.375,-0.625 l 3.0781251,-4.8593755 h 1.109375 l -2.421875,3.8281255 c 0.08203,-0.019531 0.179687,-0.046875 0.296875,-0.078125 0.09375,-0.019531 0.207031,-0.035156 0.34375,-0.046875 0.132813,-0.00781 0.285156,-0.015625 0.453125,-0.015625 0.5,0 0.957031,0.085937 1.375,0.25 0.425781,0.1679687 0.789063,0.40625 1.09375,0.71875 0.3125,0.3046875 0.550781,0.6640625 0.71875,1.0781251 0.175781,0.40625 0.265625,0.8515625 0.265625,1.328125 0,0.4804688 -0.08984,0.9296876 -0.265625,1.3437501 -0.167969,0.40625 -0.40625,0.7617188 -0.71875,1.06250002 -0.3125,0.30468751 -0.6875,0.54296877 -1.125,0.71875003 -0.429687,0.1640625 -0.898437,0.25000001 -1.40625,0.25000001 z m 0,-1.01562505 c 0.351563,0 0.679688,-0.0546875 0.984375,-0.17187501 0.300781,-0.1132812 0.554688,-0.2734375 0.765625,-0.484375 0.21875,-0.2070313 0.382813,-0.453125 0.5,-0.734375 0.113281,-0.2890626 0.171875,-0.6132813 0.171875,-0.9687501 0,-0.3515625 -0.05859,-0.671875 -0.171875,-0.953125 -0.117187,-0.2890625 -0.28125,-0.5390625 -0.5,-0.7500001 -0.210937,-0.2070312 -0.464844,-0.3671875 -0.765625,-0.484375 -0.304687,-0.1132812 -0.632812,-0.171875 -0.984375,-0.171875 -0.375,0 -0.714844,0.058594 -1.015625,0.171875 -0.292969,0.1171875 -0.546875,0.2773438 -0.765625,0.484375 -0.2109376,0.2109376 -0.3710938,0.4609376 -0.4843751,0.7500001 -0.1171875,0.28125 -0.171875,0.6015625 -0.171875,0.953125 0,0.3554688 0.054687,0.6796875 0.171875,0.9687501 0.1132813,0.28125 0.2734375,0.5273437 0.4843751,0.734375 0.21875,0.2109375 0.472656,0.3710938 0.765625,0.484375 0.300781,0.11718751 0.640625,0.17187501 1.015625,0.17187501 z m 6.820313,-7.35937531 h -1.90625 v -0.65625 c 0.4375,-0.019531 0.796875,-0.1015625 1.078125,-0.25 0.289062,-0.1445313 0.519531,-0.3007813 0.6875,-0.46875 0.175781,-0.1953126 0.320312,-0.4257814 0.4375,-0.6875004 h 0.8125 V 0.00184275 h -1.109375 z m 11.382813,6.0312503 h -5.21875 v -1.2500001 l 4.921875,-6.8437506 h 1.40625 v 7.0625006 h 1.328125 v 1.0312501 h -1.328125 v 2.20312505 h -1.109375 z m 0,-1.0312501 v -5.8125002 l -4.1875,5.8125002 z m 7.949219,3.37500016 c -0.542969,0 -1.0625,-0.12109376 -1.5625,-0.35937502 -0.492188,-0.23828126 -0.929688,-0.58203127 -1.3125,-1.03125004 -0.375,-0.4570313 -0.683594,-1.015625 -0.921875,-1.6718751 -0.230469,-0.65625 -0.34375,-1.3945313 -0.34375,-2.2187501 0,-0.8203125 0.113281,-1.5625 0.34375,-2.2187501 0.238281,-0.65625 0.546875,-1.2109375 0.921875,-1.671875 0.382812,-0.4570313 0.820312,-0.8046876 1.3125,-1.0468754 0.5,-0.238281 1.015625,-0.359375 1.546875,-0.359375 0.53125,0 1.039062,0.121094 1.53125,0.359375 0.5,0.2421878 0.9375,0.5898441 1.3125,1.0468754 0.382812,0.4609375 0.691406,1.015625 0.921875,1.671875 0.226563,0.6562501 0.34375,1.3984376 0.34375,2.2187501 0,0.8242188 -0.117187,1.5625001 -0.34375,2.2187501 -0.230469,0.6562501 -0.53125,1.2148438 -0.90625,1.6718751 -0.375,0.44921877 -0.8125,0.79296878 -1.3125,1.03125004 -0.492188,0.23828126 -1,0.35937502 -1.53125,0.35937502 z m 0,-1.01562505 c 0.382812,0 0.753906,-0.0859375 1.109375,-0.26562501 0.351562,-0.1875 0.671875,-0.4570313 0.953125,-0.8125 0.28125,-0.3632813 0.503906,-0.8125001 0.671875,-1.3437501 0.175781,-0.5390625 0.265625,-1.15625 0.265625,-1.8437501 0,-0.6953125 -0.08984,-1.3125 -0.265625,-1.84375 -0.167969,-0.5390626 -0.390625,-0.9882813 -0.671875,-1.3437501 -0.28125,-0.3515625 -0.605469,-0.6171875 -0.96875,-0.796875 -0.355469,-0.1875 -0.726563,-0.28125 -1.109375,-0.28125 -0.386719,0 -0.761719,0.09375 -1.125,0.28125 -0.355469,0.1796875 -0.671875,0.4453125 -0.953125,0.796875 -0.28125,0.3554688 -0.511719,0.8046875 -0.6875,1.3437501 -0.167969,0.53125 -0.25,1.1484375 -0.25,1.84375 0,0.6875001 0.08203,1.3046876 0.25,1.8437501 0.175781,0.53125 0.40625,0.9804688 0.6875,1.3437501 0.28125,0.3554687 0.597656,0.625 0.953125,0.8125 0.363281,0.17968751 0.742187,0.26562501 1.140625,0.26562501 z m 7.472656,-7.35937531 h -1.90625 v -0.65625 c 0.4375,-0.019531 0.796875,-0.1015625 1.078125,-0.25 0.289063,-0.1445313 0.519532,-0.3007813 0.6875,-0.46875 0.175782,-0.1953126 0.320313,-0.4257814 0.4375,-0.6875004 h 0.8125 V 0.00184275 h -1.109375 z m 9.617188,8.37500036 c -0.585937,0 -1.09375,-0.07812501 -1.53125,-0.23437501 -0.4375,-0.15625001 -0.796875,-0.33203127 -1.078125,-0.53125003 -0.335937,-0.21875 -0.617187,-0.47265622 -0.84375,-0.76562502 l 0.734375,-0.734375 c 0.1875,0.2421875 0.414063,0.4492187 0.6875,0.625 0.21875,0.15625 0.492188,0.3046875 0.828125,0.4375 0.332032,0.12500001 0.734375,0.18750001 1.203125,0.18750001 0.382813,0 0.726563,-0.0507813 1.03125,-0.15625001 0.300782,-0.1015625 0.554688,-0.2421875 0.765625,-0.421875 0.207032,-0.1875 0.363282,-0.3984375 0.46875,-0.640625 0.113282,-0.2382813 0.171875,-0.4921876 0.171875,-0.7656251 0,-0.2695312 -0.05859,-0.5195312 -0.171875,-0.75 -0.117187,-0.2382813 -0.277343,-0.453125 -0.484375,-0.640625 -0.210937,-0.1875 -0.464843,-0.3320313 -0.765625,-0.4375 -0.304687,-0.1132813 -0.640625,-0.1718751 -1.015625,-0.1718751 h -1.03125 v -1.015625 h 1.03125 c 0.632813,0 1.125,-0.1640625 1.46875,-0.5 0.34375,-0.3320313 0.515625,-0.78125 0.515625,-1.3437501 0,-0.4765625 -0.171875,-0.8789063 -0.515625,-1.203125 -0.34375,-0.3203125 -0.835937,-0.484375 -1.46875,-0.484375 -0.386718,0 -0.726562,0.0625 -1.015625,0.1875 -0.292968,0.1171875 -0.539062,0.2460937 -0.734375,0.390625 -0.230469,0.1796875 -0.429687,0.375 -0.59375,0.59375 l -0.734375,-0.8125 c 0.207031,-0.25 0.460938,-0.4765625 0.765625,-0.6875001 0.25,-0.1757812 0.566406,-0.3359373 0.953125,-0.4843753 0.382813,-0.144531 0.835938,-0.21875 1.359375,-0.21875 0.46875,0 0.890625,0.07422 1.265625,0.21875 0.375,0.148438 0.695313,0.3437503 0.96875,0.5937503 0.28125,0.2421876 0.492188,0.5273438 0.640625,0.8593751 0.144532,0.3359375 0.21875,0.6835938 0.21875,1.046875 0,0.4375 -0.08594,0.8085938 -0.25,1.1093751 -0.15625,0.2929687 -0.335937,0.5273437 -0.53125,0.703125 -0.230468,0.1992188 -0.484375,0.3554688 -0.765625,0.46875 0.351563,0.09375 0.671875,0.2578125 0.953125,0.484375 0.238282,0.1992188 0.457032,0.4648438 0.65625,0.7968751 0.195313,0.3359375 0.296875,0.765625 0.296875,1.296875 0,0.375 -0.08594,0.7460938 -0.25,1.1093751 -0.15625,0.3671875 -0.386718,0.6875 -0.6875,0.96875002 -0.292968,0.27343751 -0.652343,0.49609377 -1.078125,0.67187503 -0.429687,0.1640625 -0.90625,0.25000001 -1.4375,0.25000001 z m 9.988282,-2.34375006 h -5.21875 v -1.2500001 l 4.921875,-6.8437506 h 1.40625 v 7.0625006 h 1.328125 v 1.0312501 h -1.328125 v 2.20312505 h -1.109375 z m 0,-1.0312501 v -5.8125002 l -4.1875,5.8125002 z m 5.4375,-5.0000002 h -1.90625 v -0.65625 c 0.4375,-0.019531 0.796875,-0.1015625 1.078125,-0.25 0.289063,-0.1445313 0.519531,-0.3007813 0.6875,-0.46875 0.175781,-0.1953126 0.320313,-0.4257814 0.4375,-0.6875004 h 0.8125 V 0.00184275 h -1.109375 z m 10.738282,8.37500036 c -0.542969,0 -1.0625,-0.12109376 -1.5625,-0.35937502 -0.492188,-0.23828126 -0.929688,-0.58203127 -1.3125,-1.03125004 -0.375,-0.4570313 -0.683594,-1.015625 -0.921875,-1.6718751 -0.230469,-0.65625 -0.34375,-1.3945313 -0.34375,-2.2187501 0,-0.8203125 0.113281,-1.5625 0.34375,-2.2187501 0.238281,-0.65625 0.546875,-1.2109375 0.921875,-1.671875 0.382812,-0.4570313 0.820312,-0.8046876 1.3125,-1.0468754 0.5,-0.238281 1.015625,-0.359375 1.546875,-0.359375 0.53125,0 1.039062,0.121094 1.53125,0.359375 0.5,0.2421878 0.9375,0.5898441 1.3125,1.0468754 0.382813,0.4609375 0.691406,1.015625 0.921875,1.671875 0.226563,0.6562501 0.34375,1.3984376 0.34375,2.2187501 0,0.8242188 -0.117187,1.5625001 -0.34375,2.2187501 -0.230469,0.6562501 -0.53125,1.2148438 -0.90625,1.6718751 -0.375,0.44921877 -0.8125,0.79296878 -1.3125,1.03125004 -0.492188,0.23828126 -1,0.35937502 -1.53125,0.35937502 z m 0,-1.01562505 c 0.382812,0 0.753906,-0.0859375 1.109375,-0.26562501 0.351562,-0.1875 0.671875,-0.4570313 0.953125,-0.8125 0.28125,-0.3632813 0.503906,-0.8125001 0.671875,-1.3437501 0.175781,-0.5390625 0.265625,-1.15625 0.265625,-1.8437501 0,-0.6953125 -0.08984,-1.3125 -0.265625,-1.84375 -0.167969,-0.5390626 -0.390625,-0.9882813 -0.671875,-1.3437501 -0.28125,-0.3515625 -0.605469,-0.6171875 -0.96875,-0.796875 -0.355469,-0.1875 -0.726563,-0.28125 -1.109375,-0.28125 -0.386719,0 -0.761719,0.09375 -1.125,0.28125 -0.355469,0.1796875 -0.671875,0.4453125 -0.953125,0.796875 -0.28125,0.3554688 -0.511719,0.8046875 -0.6875,1.3437501 -0.167969,0.53125 -0.25,1.1484375 -0.25,1.84375 0,0.6875001 0.08203,1.3046876 0.25,1.8437501 0.175781,0.53125 0.40625,0.9804688 0.6875,1.3437501 0.28125,0.3554687 0.597656,0.625 0.953125,0.8125 0.363281,0.17968751 0.742187,0.26562501 1.140625,0.26562501 z m 8.863282,1.01562505 c -0.585938,0 -1.093751,-0.07812501 -1.531251,-0.23437501 -0.4375,-0.15625001 -0.796875,-0.33203127 -1.078125,-0.53125003 -0.335937,-0.21875 -0.617187,-0.47265622 -0.84375,-0.76562502 l 0.734375,-0.734375 c 0.1875,0.2421875 0.414063,0.4492187 0.6875,0.625 0.21875,0.15625 0.492188,0.3046875 0.828125,0.4375 0.332032,0.12500001 0.734376,0.18750001 1.203126,0.18750001 0.382812,0 0.726562,-0.0507813 1.03125,-0.15625001 0.300781,-0.1015625 0.554687,-0.2421875 0.765625,-0.421875 0.207031,-0.1875 0.363281,-0.3984375 0.46875,-0.640625 0.113281,-0.2382813 0.171875,-0.4921876 0.171875,-0.7656251 0,-0.2695312 -0.05859,-0.5195312 -0.171875,-0.75 -0.117188,-0.2382813 -0.277344,-0.453125 -0.484375,-0.640625 -0.210938,-0.1875 -0.464844,-0.3320313 -0.765625,-0.4375 -0.304688,-0.1132813 -0.640625,-0.1718751 -1.015625,-0.1718751 h -1.031251 v -1.015625 h 1.031251 c 0.632812,0 1.125,-0.1640625 1.46875,-0.5 0.34375,-0.3320313 0.515625,-0.78125 0.515625,-1.3437501 0,-0.4765625 -0.171875,-0.8789063 -0.515625,-1.203125 -0.34375,-0.3203125 -0.835938,-0.484375 -1.46875,-0.484375 -0.386719,0 -0.726563,0.0625 -1.015626,0.1875 -0.292968,0.1171875 -0.539062,0.2460937 -0.734375,0.390625 -0.230468,0.1796875 -0.429687,0.375 -0.59375,0.59375 l -0.734375,-0.8125 c 0.207032,-0.25 0.460938,-0.4765625 0.765625,-0.6875001 0.25,-0.1757812 0.566407,-0.3359373 0.953125,-0.4843753 0.382813,-0.144531 0.835938,-0.21875 1.359376,-0.21875 0.46875,0 0.890625,0.07422 1.265625,0.21875 0.375,0.148438 0.695312,0.3437503 0.96875,0.5937503 0.28125,0.2421876 0.492187,0.5273438 0.640625,0.8593751 0.144531,0.3359375 0.21875,0.6835938 0.21875,1.046875 0,0.4375 -0.08594,0.8085938 -0.25,1.1093751 -0.15625,0.2929687 -0.335938,0.5273437 -0.53125,0.703125 -0.230469,0.1992188 -0.484375,0.3554688 -0.765625,0.46875 0.351562,0.09375 0.671875,0.2578125 0.953125,0.484375 0.238281,0.1992188 0.457031,0.4648438 0.65625,0.7968751 0.195312,0.3359375 0.296875,0.765625 0.296875,1.296875 0,0.375 -0.08594,0.7460938 -0.25,1.1093751 -0.15625,0.3671875 -0.386719,0.6875 -0.6875,0.96875002 -0.292969,0.27343751 -0.652344,0.49609377 -1.078125,0.67187503 -0.429688,0.1640625 -0.90625,0.25000001 -1.4375,0.25000001 z m 8.820312,0 c -0.585937,0 -1.085937,-0.07812501 -1.5,-0.23437501 -0.40625,-0.15625001 -0.757812,-0.33203127 -1.046875,-0.53125003 -0.324218,-0.21875 -0.601562,-0.47265622 -0.828125,-0.76562502 l 0.734375,-0.734375 c 0.1875,0.2421875 0.40625,0.4492187 0.65625,0.625 0.226563,0.15625 0.503907,0.3046875 0.828125,0.4375 0.332032,0.12500001 0.71875,0.18750001 1.15625,0.18750001 0.363282,0 0.691407,-0.0546875 0.984375,-0.17187501 0.30078,-0.1132812 0.5625,-0.2734375 0.78125,-0.484375 0.21875,-0.2070313 0.37891,-0.453125 0.48438,-0.734375 0.11328,-0.2890626 0.17187,-0.6132813 0.17187,-0.9687501 0,-0.7070313 -0.21875,-1.2734375 -0.65625,-1.7031251 -0.42969,-0.4375 -0.992187,-0.65625 -1.6875,-0.65625 -0.398437,0 -0.742187,0.0625 -1.03125,0.1875 -0.28125,0.1171875 -0.511718,0.2421875 -0.6875,0.375 -0.230468,0.1679688 -0.417968,0.3515626 -0.5625,0.5468751 h -0.8125 l 0.375,-5.8125006 h 5.5 v 1.0312504 h -4.546875 l -0.21875,3.2343751 c 0.15625,-0.1015625 0.332032,-0.203125 0.53125,-0.296875 0.164063,-0.070312 0.367188,-0.1328125 0.609375,-0.1875 0.25,-0.0625 0.53125,-0.09375 0.84375,-0.09375 0.5,0 0.95703,0.085937 1.375,0.25 0.42578,0.1679687 0.78906,0.40625 1.09375,0.71875 0.3125,0.3046875 0.55078,0.6640625 0.71875,1.0781251 0.17578,0.40625 0.26563,0.8515625 0.26563,1.328125 0,0.5 -0.0859,0.9609376 -0.25,1.3750001 -0.16797,0.40625 -0.40625,0.7617188 -0.71875,1.06250002 -0.30469,0.29296876 -0.67188,0.52343752 -1.10938,0.68750003 -0.4375,0.1640625 -0.921875,0.25000001 -1.453125,0.25000001 z m 0,0"
         style="fill:#ffffff;fill-opacity:1;fill-rule:nonzero;stroke:none"
         aria-label="+61 401 341 035"
         transform="translate(344.85225,1066.4499)" />
    </g>
    <g
       id="g89">
      <g
         id="g20"
         transform="translate(202.44558,366.69388)">
        <g
           id="g21" />
        <path
           id="path21"
           d="m 1.6730223,-13.061568 h 9.6093757 v 2.609375 H 4.4855224 v 3.0781253 h 5.3125003 v 2.6250001 H 4.4855224 V 9.3256276e-4 H 1.6730223 Z M 19.860523,0.28218257 c -1,0 -1.933594,-0.1796875 -2.796875,-0.53125002 -0.867188,-0.36328126 -1.617188,-0.85156255 -2.25,-1.46875005 -0.636719,-0.625 -1.136719,-1.3476563 -1.5,-2.1718751 -0.355469,-0.8203125 -0.53125,-1.7031251 -0.53125,-2.6406251 0,-0.9257813 0.175781,-1.8007813 0.53125,-2.6250001 0.363281,-0.8320313 0.863281,-1.5546872 1.5,-2.1718752 0.632812,-0.613281 1.382812,-1.101562 2.25,-1.46875 0.863281,-0.363281 1.796875,-0.546875 2.796875,-0.546875 1.007813,0 1.945313,0.183594 2.8125,0.546875 0.863281,0.367188 1.613282,0.855469 2.25,1.46875 0.632813,0.617188 1.128907,1.3398439 1.484375,2.1718752 0.363282,0.8242188 0.546875,1.6992188 0.546875,2.6250001 0,0.9375 -0.183593,1.8203126 -0.546875,2.6406251 -0.355468,0.8242188 -0.851562,1.5468751 -1.484375,2.1718751 -0.636718,0.6171875 -1.386719,1.10546879 -2.25,1.46875005 -0.867187,0.35156252 -1.804687,0.53125002 -2.8125,0.53125002 z m 0,-2.60937507 c 0.59375,0 1.140625,-0.109375 1.640625,-0.328125 0.507813,-0.2187501 0.953125,-0.5156251 1.328125,-0.8906251 0.382813,-0.3828125 0.6875,-0.8320313 0.90625,-1.34375 0.21875,-0.5078126 0.328125,-1.0546876 0.328125,-1.6406251 0,-0.5820313 -0.109375,-1.1289063 -0.328125,-1.6406251 -0.21875,-0.5078125 -0.523437,-0.953125 -0.90625,-1.328125 -0.375,-0.3828125 -0.820312,-0.6875002 -1.328125,-0.9062502 -0.5,-0.21875 -1.046875,-0.328125 -1.640625,-0.328125 -0.585937,0 -1.132812,0.109375 -1.640625,0.328125 -0.511719,0.21875 -0.953125,0.5234377 -1.328125,0.9062502 -0.375,0.375 -0.671875,0.8203125 -0.890625,1.328125 -0.21875,0.5117188 -0.328125,1.0585938 -0.328125,1.6406251 0,0.5859375 0.109375,1.1328125 0.328125,1.6406251 0.21875,0.5117187 0.515625,0.9609375 0.890625,1.34375 0.375,0.375 0.816406,0.671875 1.328125,0.8906251 0.507813,0.21875 1.054688,0.328125 1.640625,0.328125 z m 9.609375,-10.7343755 h 2.812501 v 10.4531255 h 6.0625 V 9.3256276e-4 h -8.875001 z m 10.914063,0 h 4.765626 c 1.007812,0 1.929687,0.171875 2.765625,0.515625 0.84375,0.34375 1.570312,0.808594 2.1875,1.390625 0.613281,0.585938 1.09375,1.2773439 1.4375,2.0781252 0.34375,0.7929688 0.515625,1.6406251 0.515625,2.5468751 0,0.90625 -0.171875,1.7617188 -0.515625,2.5625001 -0.34375,0.7929688 -0.824219,1.4804688 -1.4375,2.0625001 -0.617188,0.5859375 -1.34375,1.04687503 -2.1875,1.39062504 -0.835938,0.34375002 -1.757813,0.51562502276 -2.765625,0.51562502276 h -4.765626 z m 4.765626,10.4531255 c 0.582031,0 1.117187,-0.097656 1.609375,-0.2968751 0.488281,-0.1953125 0.910156,-0.46875 1.265625,-0.8125 0.351562,-0.3515625 0.628906,-0.7695313 0.828125,-1.25 0.207031,-0.4765626 0.3125,-1.0000001 0.3125,-1.5625001 0,-0.5625 -0.105469,-1.0820313 -0.3125,-1.5625001 -0.199219,-0.4765625 -0.476563,-0.890625 -0.828125,-1.234375 -0.355469,-0.34375 -0.777344,-0.6132813 -1.265625,-0.8125002 -0.492188,-0.207031 -1.027344,-0.3125 -1.609375,-0.3125 h -1.953125 v 7.8437505 z M 61.934744,-13.061568 h 3.171875 L 70.153494,9.3256276e-4 H 67.169119 L 66.044119,-2.9834426 h -5.03125 l -1.125,2.98437516276 h -2.984376 z m 3.171875,7.5625003 -1.546875,-4.2968751 h -0.07813 l -1.546875,4.2968751 z m 6.804688,-7.5625003 h 2.8125 V 9.3256276e-4 h -2.8125 z m 0,0"
           style="fill:#042739;fill-opacity:1;fill-rule:nonzero;stroke:none"
           aria-label="FOLD AI"
           transform="translate(150.20198,110.34529)" />
      </g>
      <g
         id="g22"
         transform="translate(202.44558,366.69388)">
        <g
           id="g23" />
        <path
           id="path23"
           d="m 1.5323973,-10.264692 h 7.0468753 v 1.03125 H 2.6417724 v 3.3750001 h 4.7656252 v 1.0156251 H 2.6417724 v 3.8125001 H 8.7198976 V 9.3335443e-4 H 1.5323973 Z M 12.239429,-3.6709418 9.8175539,-7.0303169 h 1.2500001 l 1.828125,2.5625001 1.828125,-2.5625001 h 1.25 l -2.421875,3.3593751 2.640625,3.67187515443 h -1.25 L 12.895679,-2.8584418 10.848804,9.3335443e-4 H 9.5988039 Z m 5.347656,-3.3593751 h 1.031251 v 1.015625 c 0.15625,-0.2070313 0.351562,-0.3984375 0.59375,-0.578125 0.195312,-0.1445313 0.445312,-0.28125 0.75,-0.40625 0.300781,-0.125 0.65625,-0.1875 1.0625,-0.1875 0.476562,0 0.925781,0.09375 1.34375,0.28125 0.414062,0.1796875 0.78125,0.4335937 1.09375,0.765625 0.3125,0.3242188 0.554687,0.7109375 0.734375,1.15625 0.1875,0.4492188 0.28125,0.9375001 0.28125,1.4687501 0,0.53125 -0.09375,1.0234376 -0.28125,1.4687501 -0.179688,0.4492187 -0.421875,0.8398438 -0.734375,1.17187502 -0.3125,0.32421876 -0.679688,0.57421877 -1.09375,0.75000003 -0.417969,0.17578126 -0.867188,0.26562501 -1.34375,0.26562501 -0.40625,0 -0.761719,-0.05859375 -1.0625,-0.17187501 -0.304688,-0.125 -0.554688,-0.25781251 -0.75,-0.40625001 -0.242188,-0.17578126 -0.4375,-0.37500002 -0.59375,-0.59375004 v 4.1093752 h -1.031251 z m 3.437501,6.21875022 c 0.332031,0 0.644531,-0.0625 0.9375,-0.18750001 0.300781,-0.13281251 0.5625,-0.32031251 0.78125,-0.56250001 0.21875,-0.2382813 0.390625,-0.5234375 0.515625,-0.859375 0.125,-0.3320313 0.1875,-0.6953126 0.1875,-1.0937501 0,-0.40625 -0.0625,-0.7695313 -0.1875,-1.09375 -0.125,-0.3320313 -0.296875,-0.6171876 -0.515625,-0.8593751 -0.21875,-0.2382812 -0.480469,-0.4257812 -0.78125,-0.5625 -0.292969,-0.1328125 -0.605469,-0.203125 -0.9375,-0.203125 -0.3125,0 -0.617188,0.074219 -0.90625,0.21875 -0.28125,0.1367188 -0.539063,0.328125 -0.765625,0.578125 -0.21875,0.2421875 -0.398438,0.5273438 -0.53125,0.8593751 -0.136719,0.3242187 -0.203125,0.6796875 -0.203125,1.0625 0,0.375 0.06641,0.7304688 0.203125,1.0625001 0.132812,0.3359375 0.3125,0.625 0.53125,0.875 0.226562,0.2421875 0.484375,0.4296875 0.765625,0.5625 0.289062,0.13671877 0.59375,0.20312502 0.90625,0.20312502 z m 5.359375,-9.45312532 h 1.015625 V 9.3335443e-4 h -1.015625 z m 5.425781,10.40625036 c -0.375,0 -0.714843,-0.05859375 -1.015625,-0.17187501 -0.304687,-0.11328125 -0.5625,-0.26562501 -0.78125,-0.45312502 -0.21875,-0.1953125 -0.390625,-0.42187501 -0.515625,-0.67187503 -0.125,-0.25 -0.1875,-0.5 -0.1875,-0.75 0,-0.5820313 0.175781,-1.0546876 0.53125,-1.4218751 0.351563,-0.3632812 0.863282,-0.5976563 1.53125,-0.703125 l 2.703125,-0.4375 c 0,-0.5195313 -0.167968,-0.9414063 -0.5,-1.2656251 -0.324218,-0.3320312 -0.742187,-0.5 -1.25,-0.5 -0.324218,0 -0.605468,0.058594 -0.84375,0.171875 -0.242187,0.1054688 -0.445312,0.21875 -0.609375,0.34375 -0.199218,0.15625 -0.375,0.328125 -0.53125,0.515625 l -0.65625,-0.65625 c 0.1875,-0.25 0.414063,-0.46875 0.6875,-0.65625 0.21875,-0.1640625 0.488282,-0.3164063 0.8125,-0.453125 0.320313,-0.1445313 0.703125,-0.21875 1.140625,-0.21875 0.394532,0 0.765625,0.074219 1.109375,0.21875 0.34375,0.1367187 0.632813,0.328125 0.875,0.578125 0.25,0.2421875 0.441407,0.5273438 0.578125,0.859375 0.144532,0.3242188 0.21875,0.6796876 0.21875,1.0625001 V 9.3335443e-4 h -1.03125 V -0.95219169 c -0.148437,0.21093751 -0.335937,0.39843752 -0.5625,0.56250003 -0.1875,0.13671875 -0.429687,0.26171876 -0.71875,0.37500001 -0.28125,0.10156251 -0.609375,0.15625001 -0.984375,0.15625001 z m 0,-0.95312504 c 0.332032,0 0.632813,-0.0507813 0.90625,-0.15625001 0.28125,-0.11328121 0.519532,-0.27343751 0.71875,-0.48437501 0.195313,-0.2070313 0.351563,-0.453125 0.46875,-0.734375 0.113282,-0.2890625 0.171875,-0.6132813 0.171875,-0.9687501 v -0.4375 l -2.421875,0.4375 c -0.875,0.1679688 -1.3125,0.5859375 -1.3125,1.2500001 0,0.2929687 0.125,0.546875 0.375,0.765625 0.25,0.21875002 0.613282,0.32812502 1.09375,0.32812502 z m 5.636719,-6.21875022 h 1.03125 v 1.015625 c 0.144532,-0.2070313 0.328125,-0.3984375 0.546875,-0.578125 0.195313,-0.1445313 0.4375,-0.28125 0.71875,-0.40625 0.28125,-0.125 0.613282,-0.1875 1,-0.1875 0.414063,0 0.800782,0.074219 1.156251,0.21875 0.351562,0.1484375 0.65625,0.3515625 0.90625,0.609375 0.25,0.25 0.441406,0.5625 0.578125,0.9375 0.144531,0.375 0.21875,0.7929688 0.21875,1.2500001 V 9.3335443e-4 h -1.03125 V -4.1709418 c 0,-0.625 -0.179688,-1.1250001 -0.53125,-1.5000001 -0.355469,-0.375 -0.812501,-0.5625 -1.375001,-0.5625 -0.3125,0 -0.605468,0.058594 -0.875,0.171875 -0.261718,0.1171875 -0.492187,0.2773438 -0.6875,0.484375 -0.199218,0.1992188 -0.355468,0.4453125 -0.46875,0.7343751 -0.105468,0.2929687 -0.15625,0.609375 -0.15625,0.953125 V 9.3335443e-4 h -1.03125 z m 10.484376,7.17187526 c -0.375,0 -0.714844,-0.05859375 -1.015625,-0.17187501 -0.304688,-0.11328125 -0.5625,-0.26562501 -0.78125,-0.45312502 -0.21875,-0.1953125 -0.390625,-0.42187501 -0.515625,-0.67187503 -0.125,-0.25 -0.1875,-0.5 -0.1875,-0.75 0,-0.5820313 0.175781,-1.0546876 0.53125,-1.4218751 0.351562,-0.3632812 0.863281,-0.5976563 1.53125,-0.703125 l 2.703125,-0.4375 c 0,-0.5195313 -0.167969,-0.9414063 -0.5,-1.2656251 -0.324219,-0.3320312 -0.742188,-0.5 -1.25,-0.5 -0.324219,0 -0.605469,0.058594 -0.84375,0.171875 -0.242188,0.1054688 -0.445313,0.21875 -0.609375,0.34375 -0.199219,0.15625 -0.375,0.328125 -0.53125,0.515625 l -0.65625,-0.65625 c 0.1875,-0.25 0.414062,-0.46875 0.6875,-0.65625 0.21875,-0.1640625 0.488281,-0.3164063 0.8125,-0.453125 0.320312,-0.1445313 0.703125,-0.21875 1.140625,-0.21875 0.394531,0 0.765625,0.074219 1.109375,0.21875 0.34375,0.1367187 0.632812,0.328125 0.875,0.578125 0.25,0.2421875 0.441406,0.5273438 0.578125,0.859375 0.144531,0.3242188 0.21875,0.6796876 0.21875,1.0625001 V 9.3335443e-4 h -1.03125 V -0.95219169 c -0.148438,0.21093751 -0.335938,0.39843752 -0.5625,0.56250003 -0.1875,0.13671875 -0.429688,0.26171876 -0.71875,0.37500001 -0.28125,0.10156251 -0.609375,0.15625001 -0.984375,0.15625001 z m 0,-0.95312504 c 0.332031,0 0.632812,-0.0507813 0.90625,-0.15625001 0.28125,-0.11328121 0.519531,-0.27343751 0.71875,-0.48437501 0.195312,-0.2070313 0.351562,-0.453125 0.46875,-0.734375 0.113281,-0.2890625 0.171875,-0.6132813 0.171875,-0.9687501 v -0.4375 l -2.421875,0.4375 c -0.875,0.1679688 -1.3125,0.5859375 -1.3125,1.2500001 0,0.2929687 0.125,0.546875 0.375,0.765625 0.25,0.21875002 0.613281,0.32812502 1.09375,0.32812502 z m 8.152344,0.95312504 c -0.605469,0 -1.078125,-0.17187501 -1.421875,-0.51562502 -0.335938,-0.35156252 -0.5,-0.86328124 -0.5,-1.53125004 v -4.1718752 h -1.328125 v -0.953125 h 0.8125 c 0.382812,0 0.578125,-0.2421875 0.578125,-0.7343751 v -1.609375 h 0.953125 v 2.3437501 h 1.546875 v 0.953125 h -1.546875 v 4.1718752 c 0,0.375 0.08203,0.6523438 0.25,0.828125 0.175781,0.17968752 0.410156,0.26562502 0.703125,0.26562502 0.125,0 0.242187,-0.003906 0.359375,-0.015625 0.125,-0.0195313 0.226562,-0.046875 0.3125,-0.078125 0.113281,-0.0390625 0.207031,-0.0820313 0.28125,-0.12500002 v 0.95312505 c -0.08594,0.04296875 -0.183594,0.08203125 -0.296875,0.12500001 -0.08594,0.03125 -0.1875,0.05078125 -0.3125,0.0625 -0.117188,0.0195313 -0.246094,0.03125 -0.390625,0.03125 z m 5.839844,0 c -0.5,0 -0.96875,-0.09375 -1.40625,-0.28125001 -0.429688,-0.18750001 -0.804688,-0.44140627 -1.125,-0.76562503 -0.324219,-0.33203122 -0.585938,-0.71875002 -0.78125,-1.15625002 -0.1875,-0.4453126 -0.28125,-0.9296876 -0.28125,-1.4531251 0,-0.5078125 0.09375,-0.9882813 0.28125,-1.4375001 0.195312,-0.4453125 0.457031,-0.8320312 0.78125,-1.15625 0.320312,-0.3320313 0.695312,-0.59375 1.125,-0.78125 0.4375,-0.1953125 0.90625,-0.296875 1.40625,-0.296875 0.5,0 0.960937,0.1015625 1.390625,0.296875 0.4375,0.1875 0.816406,0.4492187 1.140625,0.78125 0.320312,0.3242188 0.578125,0.7109375 0.765625,1.15625 0.195312,0.4492188 0.296875,0.9296876 0.296875,1.4375001 0,0.5234375 -0.101563,1.0078125 -0.296875,1.4531251 -0.1875,0.4375 -0.445313,0.8242188 -0.765625,1.15625002 -0.324219,0.32421876 -0.703125,0.57812502 -1.140625,0.76562503 -0.429688,0.18750001 -0.890625,0.28125001 -1.390625,0.28125001 z m 0,-0.95312504 c 0.351562,0 0.679687,-0.0664063 0.984375,-0.20312502 0.3125,-0.1328125 0.582031,-0.3203125 0.8125,-0.5625 0.238281,-0.25 0.425781,-0.5390625 0.5625,-0.875 0.132812,-0.3320313 0.203125,-0.6875001 0.203125,-1.0625001 0,-0.3828125 -0.07031,-0.7382813 -0.203125,-1.0625 -0.136719,-0.3320313 -0.324219,-0.6171876 -0.5625,-0.8593751 -0.230469,-0.25 -0.5,-0.4414062 -0.8125,-0.578125 -0.304688,-0.1445313 -0.632813,-0.21875 -0.984375,-0.21875 -0.355469,0 -0.6875,0.074219 -1,0.21875 -0.304688,0.1367188 -0.574219,0.328125 -0.8125,0.578125 -0.230469,0.2421875 -0.414063,0.5273438 -0.546875,0.8593751 -0.136719,0.3242187 -0.203125,0.6796875 -0.203125,1.0625 0,0.375 0.06641,0.7304688 0.203125,1.0625001 0.132812,0.3359375 0.316406,0.6210937 0.546875,0.859375 0.238281,0.2421875 0.507812,0.4335938 0.8125,0.578125 0.3125,0.13671877 0.644531,0.20312502 1,0.20312502 z M 67.3449,-7.0303169 h 1.03125 v 0.953125 c 0.15625,-0.1953125 0.34375,-0.3789063 0.5625,-0.546875 0.195313,-0.1328125 0.4375,-0.2578125 0.71875,-0.375 0.289063,-0.125 0.644531,-0.1875 1.0625,-0.1875 h 0.296875 v 1.03125 H 70.56365 c -0.292969,0 -0.570312,0.058594 -0.828125,0.171875 -0.261719,0.1054688 -0.496094,0.2578125 -0.703125,0.453125 -0.210937,0.1875 -0.371094,0.421875 -0.484375,0.7031251 -0.117187,0.28125 -0.171875,0.59375 -0.171875,0.9375 V 9.3335443e-4 H 67.3449 Z m 5.414063,10.1093754 c -0.242188,0 -0.449219,-0.027344 -0.625,-0.078125 -0.09375,-0.023437 -0.179688,-0.042969 -0.25,-0.0625 V 1.9853084 c 0.08203,0.019531 0.160156,0.039063 0.234375,0.0625 0.144531,0.050781 0.3125,0.078125 0.5,0.078125 0.332031,0 0.597656,-0.09375 0.796875,-0.28125 0.207031,-0.1796875 0.382812,-0.4492187 0.53125,-0.8125 L 74.305838,9.3335443e-4 71.446463,-7.0303169 h 1.09375 l 2.28125,5.7187502 2.265625,-5.7187502 h 1.109375 l -3.234375,8.0625003 c -0.292969,0.7265625 -0.605469,1.25 -0.9375,1.5625001 -0.335938,0.3203125 -0.757813,0.484375 -1.265625,0.484375 z M 86.036307,-10.264692 h 1.015625 l 4.25,10.26562535443 H 90.130057 L 88.958182,-2.8584418 H 84.130057 L 82.958182,9.3335443e-4 h -1.171875 z m 2.484375,6.3750002 -1.96875,-4.8281252 -1.984375,4.8281252 z m 4.613282,-6.3750002 h 1.109375 V 9.3335443e-4 h -1.109375 z m 7.253906,4.1875001 h -1.09375 v -0.953125 h 1.09375 V -8.358442 c 0,-0.65625 0.17188,-1.1601563 0.51563,-1.5156251 0.34375,-0.3515629 0.80468,-0.5312499 1.39062,-0.5312499 0.15625,0 0.28906,0.01563 0.40625,0.04687 0.125,0.02344 0.23438,0.04687 0.32813,0.07813 0.11328,0.03125 0.21093,0.0625 0.29687,0.09375 v 0.953125 c -0.0742,-0.03125 -0.16797,-0.066406 -0.28125,-0.109375 -0.0859,-0.019531 -0.1875,-0.039063 -0.3125,-0.0625 -0.11719,-0.03125 -0.23437,-0.046875 -0.35937,-0.046875 -0.29297,0 -0.52735,0.09375 -0.70313,0.28125 -0.16797,0.1796875 -0.25,0.4492187 -0.25,0.8125 v 1.3281251 h 1.6875 v 0.953125 h -1.6875 V 9.3335443e-4 h -1.03125 z m 7.41016,6.21875026 c -0.5,0 -0.96875,-0.09375 -1.40625,-0.28125001 -0.42969,-0.18750001 -0.80469,-0.44140627 -1.125,-0.76562503 -0.32422,-0.33203122 -0.58594,-0.71875002 -0.78125,-1.15625002 -0.1875,-0.4453126 -0.28125,-0.9296876 -0.28125,-1.4531251 0,-0.5078125 0.0937,-0.9882813 0.28125,-1.4375001 0.19531,-0.4453125 0.45703,-0.8320312 0.78125,-1.15625 0.32031,-0.3320313 0.69531,-0.59375 1.125,-0.78125 0.4375,-0.1953125 0.90625,-0.296875 1.40625,-0.296875 0.5,0 0.96093,0.1015625 1.39062,0.296875 0.4375,0.1875 0.81641,0.4492187 1.14063,0.78125 0.32031,0.3242188 0.57812,0.7109375 0.76562,1.15625 0.19531,0.4492188 0.29688,0.9296876 0.29688,1.4375001 0,0.5234375 -0.10157,1.0078125 -0.29688,1.4531251 -0.1875,0.4375 -0.44531,0.8242188 -0.76562,1.15625002 -0.32422,0.32421876 -0.70313,0.57812502 -1.14063,0.76562503 -0.42969,0.18750001 -0.89062,0.28125001 -1.39062,0.28125001 z m 0,-0.95312504 c 0.35156,0 0.67968,-0.0664063 0.98437,-0.20312502 0.3125,-0.1328125 0.58203,-0.3203125 0.8125,-0.5625 0.23828,-0.25 0.42578,-0.5390625 0.5625,-0.875 0.13281,-0.3320313 0.20313,-0.6875001 0.20313,-1.0625001 0,-0.3828125 -0.0703,-0.7382813 -0.20313,-1.0625 -0.13672,-0.3320313 -0.32422,-0.6171876 -0.5625,-0.8593751 -0.23047,-0.25 -0.5,-0.4414062 -0.8125,-0.578125 -0.30469,-0.1445313 -0.63281,-0.21875 -0.98437,-0.21875 -0.35547,0 -0.6875,0.074219 -1,0.21875 -0.30469,0.1367188 -0.57422,0.328125 -0.8125,0.578125 -0.23047,0.2421875 -0.41407,0.5273438 -0.54688,0.8593751 -0.13672,0.3242187 -0.20312,0.6796875 -0.20312,1.0625 0,0.375 0.0664,0.7304688 0.20312,1.0625001 0.13281,0.3359375 0.31641,0.6210937 0.54688,0.859375 0.23828,0.2421875 0.50781,0.4335938 0.8125,0.578125 0.3125,0.13671877 0.64453,0.20312502 1,0.20312502 z m 5.42187,-6.21875022 h 1.03125 v 0.953125 c 0.15625,-0.1953125 0.34375,-0.3789063 0.5625,-0.546875 0.19531,-0.1328125 0.4375,-0.2578125 0.71875,-0.375 0.28906,-0.125 0.64453,-0.1875 1.0625,-0.1875 h 0.29688 v 1.03125 h -0.45313 c -0.29297,0 -0.57031,0.058594 -0.82812,0.171875 -0.26172,0.1054688 -0.4961,0.2578125 -0.70313,0.453125 -0.21094,0.1875 -0.37109,0.421875 -0.48437,0.7031251 -0.11719,0.28125 -0.17188,0.59375 -0.17188,0.9375 V 9.3335443e-4 h -1.03125 z m 8.49219,-3.2343751 h 4.10938 c 0.45703,0 0.8789,0.07813 1.26562,0.234375 0.38281,0.1562499 0.71875,0.375 1,0.65625 0.28125,0.2734375 0.5,0.59375 0.65625,0.96875 0.15625,0.375 0.23438,0.78125 0.23438,1.2187501 0,0.59375 -0.11719,1.078125 -0.34375,1.453125 -0.21875,0.375 -0.46485,0.671875 -0.73438,0.8906251 -0.3125,0.2617187 -0.66406,0.4609375 -1.04687,0.59375 l 2.42187,4.25000015443 h -1.25 L 125.74334,-4.1084418 h -2.92188 V 9.3335443e-4 h -1.10937 z m 4.10938,5.1406251 c 0.625,0 1.11718,-0.1875 1.48437,-0.5625 0.375,-0.375 0.5625,-0.875 0.5625,-1.5 0,-0.6250001 -0.1875,-1.1171876 -0.5625,-1.4843751 -0.36719,-0.375 -0.85937,-0.5625 -1.48437,-0.5625 h -3.00001 v 4.1093751 z m 5.78515,-5.1406251 h 0.95313 l 6.3125,8.2812503 V -10.264692 H 139.966 V 9.3335443e-4 h -0.95313 L 132.716,-8.280317 V 9.3335443e-4 h -1.10938 z m 14.44531,0 h 1.01563 l 4.25,10.26562535443 h -1.17188 L 148.97381,-2.8584418 h -4.82813 l -1.17187,2.85937515443 h -1.17188 z m 2.48438,6.3750002 -1.96875,-4.8281252 -1.98438,4.8281252 z m 0,0"
           style="fill:#042739;fill-opacity:1;fill-rule:nonzero;stroke:none"
           aria-label="Explanatory AI for RNA"
           transform="translate(150.20198,129.34529)" />
      </g>
      <path
         id="path47"
         d="m 56.57,28.709999 c 0,-2.15 1.740001,-3.880001 3.889999,-3.880001 2.150002,0 3.879997,1.74 3.879997,3.880001 0,2.15 -1.740001,3.880001 -3.880001,3.880001 -0.669998,0 -1.310001,-0.169998 -1.86,-0.470001 l -2.8,4.119999 c 0.66,0.580002 1.080002,1.43 1.080002,2.389999 0,1.75 -1.419998,3.169998 -3.169998,3.169998 -1.75,0 -3.169998,-1.419998 -3.169998,-3.169998 0,-1.200001 0.669998,-2.25 1.66,-2.779999 l -0.790001,-2 c -0.18,0.04 -0.369999,0.06 -0.560002,0.06 C 49.459999,33.91 48.34,32.779999 48.34,31.4 c 0,-1.39 1.130001,-2.520001 2.509998,-2.520001 0.23,0 0.46,0.03 0.669999,0.09 l 1.630001,-3.620001 c -0.400002,-0.309999 -0.66,-0.79 -0.66,-1.329999 0,-0.930001 0.75,-1.680001 1.68,-1.680001 0.41,0 0.779999,0.14 1.07,0.39 l 2.919998,-2.22 c -0.209999,-0.379999 -0.330002,-0.83 -0.330002,-1.299999 0,-0.780001 0.34,-1.49 0.869999,-1.979999 l -1.799999,-2.65 c -0.34,0.16 -0.720001,0.25 -1.119999,0.25 -0.939999,0 -1.759998,-0.5 -2.209999,-1.24 l -2.740002,1.15 c 0,0.04 0.01,0.08 0.01,0.109999 0,0.630001 -0.46,1.15 -1.060002,1.25 l -0.369999,2.659999 c 0.919998,0.290001 1.579998,1.15 1.579998,2.16 0,1.25 -1.02,2.270001 -2.27,2.270001 -0.84,0 -1.57,-0.459999 -1.970001,-1.14 l -3.25,1.200001 c 0,0.01 0,0.02 0,0.04 0,0.67 -0.540001,1.209999 -1.21,1.209999 -0.07,0 -0.150001,-0.01 -0.220001,-0.02 l -1.650001,3 c 0.2,0.18 0.369999,0.399999 0.479999,0.649999 l 4.560002,-0.960001 c 0.07,-0.6 0.580001,-1.07 1.2,-1.07 0.669999,0 1.209999,0.540001 1.209999,1.21 0,0.62 -0.470001,1.129999 -1.069999,1.2 l -1.34,6.400002 c 1.420002,0.459999 2.439998,1.790001 2.439998,3.36 0,1.950001 -1.580002,3.540001 -3.540001,3.540001 -0.06,0 -0.119999,0 -0.18,0 l -0.53,3.28 c 0.48,0.220001 0.82,0.709999 0.82,1.279999 0,0.639999 -0.419998,1.170002 -1,1.349998 l 0.05,2.48 c 0.369999,0.139999 0.64,0.509998 0.64,0.93 0,0.549999 -0.450001,1 -1,1 -0.55,0 -1,-0.450001 -1,-1 0,-0.1 0.02,-0.200001 0.05,-0.299999 l -1.75,-1.459999 c -0.220001,0.150001 -0.490002,0.240002 -0.790001,0.240002 -0.770001,0 -1.389999,-0.619999 -1.389999,-1.39 0,-0.549999 0.319999,-1.02 0.779998,-1.25 l -0.299999,-1.66 c -0.02,0 -0.05,0 -0.07,0 -1.400001,0 -2.540001,-1.139999 -2.540001,-2.540001 0,-1.400001 1.14,-2.54 2.540001,-2.54 0.669999,0 1.270001,0.259998 1.720002,0.68 l 0.970001,-0.770001 C 41.029987,39.59 40.829987,38.950001 40.829987,38.25 c 0,-0.669998 0.189998,-1.299999 0.52,-1.84 l -2.48,-1.900002 c -0.189998,0.130001 -0.419998,0.209999 -0.669998,0.209999 -0.27,0 -0.52,-0.09 -0.720001,-0.240001 l -1.57,1.09 c 0.279999,0.509998 0.430001,1.09 0.430001,1.709999 0,1.98 -1.599999,3.579998 -3.580002,3.579998 -1.68,0 -3.08,-1.150002 -3.469999,-2.709999 l -2.680001,0.369999 c -0.03,1.27 -1.069999,2.290001 -2.35,2.290001 -1.299999,0 -2.350001,-1.049999 -2.350001,-2.349999 0,-1.299999 1.05,-2.349998 2.350001,-2.349998 0.24,0 0.469999,0.04 0.68,0.1 l 2.860001,-5.790001 c -0.73,-0.489999 -1.23,-1.290001 -1.32,-2.209999 l -2.360001,-0.08 c -0.17,0.440001 -0.59,0.75 -1.09,0.75 -0.129999,0 -0.25,-0.02 -0.370001,-0.06 l -1.889999,2.450001 c 0.59,0.58 0.950001,1.380001 0.950001,2.27 0,1.759998 -1.43,3.189999 -3.190001,3.189999 -1.479999,0 -2.729999,-1.020001 -3.09,-2.39 l -2.19,0.290001 c -0.04,1.25 -1.07,2.259999 -2.33,2.259999 -1.2900002,0 -2.3300002,-1.040001 -2.3300002,-2.329998 0,-1.220002 0.9400005,-2.220002 2.1400002,-2.32 l 0.21,-2.56 c -0.42,-0.18 -0.71,-0.6 -0.71,-1.09 0,-0.649999 0.53,-1.19 1.19,-1.19 0.149999,0 0.28,0.03 0.41,0.07 l 4.470001,-5.5 c -0.110001,-0.18 -0.18,-0.399999 -0.18,-0.629999 0,-0.319999 0.129999,-0.61 0.329999,-0.819999 l -0.69,-1.340001 c -0.35,0.13 -0.72,0.200001 -1.11,0.200001 -0.56,0 -1.09,-0.149999 -1.54,-0.399999 l -2.69,3.729999 c 0.28,0.31 0.45,0.73 0.45,1.190001 0,0.979999 -0.800001,1.78 -1.7800002,1.78 -0.1999998,0 -0.3999996,-0.03 -0.5799999,-0.1 l -2.81,4.58 c 0.6399999,0.52 1.04,1.309999 1.04,2.200001 0,1.569999 -1.27,2.84 -2.8400002,2.84 -1.5699999,0 -2.8400001,-1.270001 -2.8400001,-2.84 0,-1.280001 0.85,-2.360001 2.01,-2.72 l -0.22,-1.35 c -0.02,0 -0.03,0 -0.05,0 -1.46,0 -2.6400001,-1.18 -2.6400001,-2.639999 0,-1.450001 1.1700001,-2.630002 2.6199999,-2.64 l 0.1600001,-1.17 c -1.6900001,-0.41 -2.95000008,-1.94 -2.95000008,-3.76 0,-2.13 1.72999998,-3.860001 3.86000018,-3.860001 1.7699999,0 3.2699999,1.190001 3.7199997,2.82 L 11.459986,16.35 c 0,-0.06 0,-0.11 0,-0.17 0,-0.54 0.14,-1.05 0.37,-1.5 L 8.9599857,12.67 c -0.3199997,0.3 -0.75,0.48 -1.2200002,0.48 -0.9899998,0 -1.8000002,-0.810001 -1.8000002,-1.800001 0,-0.989999 0.8099999,-1.7999998 1.8000002,-1.7999998 0.9899997,0 1.8000002,0.8100008 1.8000002,1.7999998 0,0.25 -0.05,0.480001 -0.1400004,0.69 l 2.8699997,2.01 c 0.41,-0.46 0.96,-0.8 1.57,-0.96 l -0.01,-2.91 c -1.08,-0.18 -1.9,-1.1099993 -1.9,-2.2399994 0,-1.25 1.020001,-2.27 2.270001,-2.27 0.739999,0 1.39,0.3499999 1.8,0.8899999 l 3.63,-1.9000001 c -0.09,-0.27 -0.14,-0.5500002 -0.14,-0.8499999 0,-1.4300001 1.16,-2.5999999 2.600001,-2.5999999 1.43,0 2.6,1.1599998 2.6,2.5999999 0,0.9499998 -0.51,1.7899999 -1.280001,2.2399997 l 1.200001,2.9600001 c 0.190001,-0.04 0.379999,-0.07 0.59,-0.07 0.47,0 0.92,0.1300001 1.3,0.3599996 L 29.219986,5.999999 c -0.620001,-0.6399998 -1.01,-1.5100002 -1.01,-2.47 0,-1.95 1.58,-3.53999994 3.539999,-3.53999994 1.950001,0 3.540001,1.57999994 3.540001,3.53999994 0,0.8700001 -0.32,1.6699999 -0.84,2.28 l 2.7,2.8400006 c 0.16,-0.08 0.34,-0.1199999 0.529999,-0.1199999 0.05,0 0.1,0 0.139999,0.01 L 39.259983,5.43 c -0.59,-0.4099998 -0.979999,-1.0900001 -0.979999,-1.8699999 0,-1.25 1.02,-2.27 2.27,-2.27 1.25,0 2.27,1.02 2.27,2.27 0,0.28 -0.05,0.5500002 -0.139999,0.79 L 44.969986,5.68 c 0.57,-0.75 1.48,-1.2399998 2.490002,-1.2399998 1.729999,0 3.130001,1.4000001 3.130001,3.1300001 0,0.4200001 -0.08,0.8199997 -0.23,1.1800004 l 3.380001,1.8900003 c 0.470001,-0.609999 1.209999,-1.0100002 2.049999,-1.0100002 1.430001,0 2.590001,1.1600002 2.590001,2.5900002 0,0.75 -0.32,1.430001 -0.830002,1.9 L 59.349987,16.77 c 0.349999,-0.17 0.75,-0.27 1.170002,-0.27 1.48,0 2.68,1.200001 2.68,2.68 0,1.48 -1.2,2.680001 -2.68,2.680001 -0.73,0 -1.400002,-0.290001 -1.880001,-0.770001 l -2.920002,2.219999 c 0.09,0.21 0.139999,0.440001 0.139999,0.680001 0,0.93 -0.75,1.68 -1.68,1.68 -0.110001,0 -0.220001,-0.01 -0.32,-0.03 l -1.630001,3.619999 c 0.689999,0.450001 1.150002,1.23 1.150002,2.110001 0,0.919998 -0.5,1.729999 -1.240002,2.170002 l 0.790001,2 c 0.259998,-0.07 0.520001,-0.1 0.799999,-0.1 0.520001,0 1.020001,0.130002 1.450001,0.349999 l 2.799999,-4.119999 c -0.849998,-0.709999 -1.389999,-1.780001 -1.389999,-2.98 l -0.01998,0.02 z m -41.959999,-15.7 L 14.6,10.19 c 1.07,-0.180001 1.879999,-1.1200003 1.879999,-2.2400002 0,-0.2399998 -0.04,-0.48 -0.11,-0.6999998 L 20,5.3499999 C 20.469999,6 21.24,6.4200001 22.1,6.4200001 c 0.209999,0 0.41,-0.02 0.610001,-0.07 l 1.200001,2.9599996 c -0.74,0.4399995 -1.24,1.2500003 -1.24,2.1800003 0,1.12 0.73,2.07 1.74,2.41 l -0.540001,3.2 c -0.07,0 -0.14,-0.01 -0.219999,-0.01 -1.98,0 -3.58,1.600001 -3.58,3.58 0,1.98 1.6,3.58 3.58,3.58 1.879999,0 3.42,-1.450001 3.569999,-3.290001 l 2.07,-0.06 c 0.17,0.45 0.6,0.77 1.110001,0.77 0.36,0 0.68,-0.16 0.899999,-0.42 l 2.710001,1.08 c -0.03,0.16 -0.05,0.32 -0.05,0.479999 0,1.260001 1.029999,2.289999 2.290001,2.289999 1.259998,0 2.290001,-1.03 2.290001,-2.29 0,-0.55 -0.200001,-1.06 -0.520001,-1.46 l 2.869999,-3.319999 c 0.5,0.33 1.099999,0.53 1.740002,0.53 1.729999,0 3.130001,-1.399999 3.130001,-3.13 0,-1.73 -1.400002,-3.13 -3.130001,-3.13 -0.650002,0 -1.259998,0.2 -1.759998,0.54 l -2.14,-2.45 c 0.110001,-0.18 0.169998,-0.399999 0.169998,-0.6299995 0,-0.3500004 -0.150001,-0.6700001 -0.389999,-0.8999996 L 39.940006,5.75 c 0.189999,0.05 0.39,0.08 0.59,0.08 0.700001,0 1.330002,-0.3200001 1.740002,-0.8200001 l 2.290001,1.3299999 c -0.16,0.3800001 -0.25,0.7899999 -0.25,1.23 0,1.7299995 1.400002,3.1300002 3.130001,3.1300002 0.169998,0 0.34,-0.01 0.5,-0.04 l 0.900002,3.11 c -0.340001,0.229999 -0.560002,0.609999 -0.560002,1.05 0,0.51 0.299999,0.94 0.720001,1.149999 l -0.369998,2.66 c -1.220002,0.04 -2.200001,1.039999 -2.200001,2.270001 0,0.139999 0.01,0.28 0.04,0.42 l -3.25,1.2 c -0.220002,-0.28 -0.560002,-0.45 -0.939999,-0.45 -0.669998,0 -1.209999,0.540001 -1.209999,1.209999 0,0.319999 0.119999,0.6 0.32,0.819999 l -1.650002,3 c -0.169998,-0.05 -0.349998,-0.08 -0.529999,-0.08 -1.02,0 -1.84,0.819999 -1.84,1.84 0,1.02 0.82,1.84 1.84,1.84 1.020001,0 1.84,-0.82 1.84,-1.84 l 4.560002,-0.97 c 0.11,0.180001 0.25,0.33 0.43,0.430001 l -1.34,6.400001 c -0.110001,-0.01 -0.23,-0.02 -0.349998,-0.02 -1,0 -1.91,0.419998 -2.560002,1.09 l -2.479999,-1.900002 c 0.04,-0.119999 0.07,-0.259998 0.07,-0.389999 0,-0.669998 -0.540001,-1.209999 -1.209999,-1.209999 -0.669998,0 -1.209999,0.540001 -1.209999,1.209999 0,0.119999 0.02,0.23 0.05,0.34 l -1.569999,1.09 c -0.66,-0.759998 -1.630001,-1.240001 -2.709999,-1.240001 -1.98,0 -3.58,1.599998 -3.58,3.579998 0,0.04 0,0.08 0,0.11 l -2.680001,0.369999 C 26.32002,37.259994 26.00002,36.829997 25.59002,36.539996 l 2.860001,-5.790001 c 0.299999,0.100001 0.629999,0.16 0.969999,0.16 1.65,0 2.99,-1.34 2.99,-2.99 0,-1.649999 -1.34,-2.979999 -2.99,-2.979999 -1.479999,0 -2.710001,1.08 -2.950001,2.5 l -2.36,-0.08 c -0.15,-0.48 -0.59,-0.82 -1.110001,-0.82 -0.639999,0 -1.17,0.520001 -1.17,1.17 0,0.24 0.07,0.450001 0.190001,0.64 l -1.89,2.45 c -0.479999,-0.290001 -1.039999,-0.45 -1.629999,-0.45 -1.76,0 -3.19,1.43 -3.19,3.19 0,0.01 0,0.03 0,0.04 l -2.190001,0.290001 c -0.24,-0.770001 -0.87,-1.380001 -1.66,-1.579998 l 0.21,-2.56 c 0.52,-0.129999 0.9,-0.6 0.9,-1.149999 0,-0.23 -0.07,-0.450001 -0.18,-0.629999 l 4.47,-5.5 c 0.129999,0.05 0.27,0.07 0.41,0.07 0.659999,0 1.19,-0.53 1.19,-1.19 0,-0.65 -0.530001,-1.190001 -1.19,-1.190001 -0.06,0 -0.120001,0 -0.17,0.01 l -0.690001,-1.340001 c 0.84,-0.569999 1.4,-1.540001 1.4,-2.639999 0,-1.76 -1.430001,-3.190001 -3.190001,-3.190001 -0.02,0 -0.03,0 -0.04,0 l 0.02998,0.03 z m 10.01,4.220001 0.540001,-3.2 c 0.01,0 0.03,0 0.04,0 0.92,0 1.719999,-0.49 2.17,-1.22 l 3.700001,1.529999 c -0.05,0.21 -0.08,0.42 -0.08,0.65 0,1.46 1.179998,2.64 2.640001,2.64 1.459999,0 2.639999,-1.18 2.639999,-2.64 0,-0.71 -0.279999,-1.350001 -0.729999,-1.83 l 1.729999,-2.230001 c 0.130001,0.05 0.270001,0.07 0.41,0.07 0.169998,0 0.330002,-0.03 0.48,-0.1 l 2.139999,2.45 c -0.5,0.55 -0.799999,1.29 -0.799999,2.09 0,0.81 0.310001,1.54 0.810001,2.099999 l -2.869999,3.32 c -0.349998,-0.209999 -0.75,-0.33 -1.189998,-0.33 -0.830002,0 -1.55,0.44 -1.959999,1.1 l -2.71,-1.08 c 0,-0.02 0,-0.04 0,-0.06 0,-0.66 -0.53,-1.190001 -1.19,-1.190001 -0.530001,0 -0.98,0.350001 -1.129999,0.84 l -2.07,0.06 c -0.19,-1.43 -1.219999,-2.58 -2.58,-2.969999 l 0.01,2e-6 z M 33.889999,6.3499994 36.59,9.1899996 c -0.09,0.1700001 -0.150001,0.3699999 -0.150001,0.5799999 0,0.2500005 0.08,0.4899995 0.209999,0.6899995 l -1.73,2.23 c -0.380001,-0.220001 -0.830002,-0.34 -1.299999,-0.34 -0.959999,0 -1.799999,0.52 -2.26,1.279999 l -3.700001,-1.54 c 0.05,-0.189999 0.07,-0.399999 0.07,-0.609999 0,-0.65 -0.25,-1.24 -0.65,-1.69 l 2.719999,-3.3000002 c 0.56,0.3699999 1.22,0.5799999 1.940001,0.5799999 0.810001,0 1.549999,-0.2699999 2.150001,-0.73 z M 49.580002,13.58 48.68,10.46 c 0.520001,-0.22 0.959999,-0.5799999 1.290001,-1.0299997 l 3.380001,1.8900007 c -0.11,0.279999 -0.169998,0.59 -0.169998,0.909999 0,0.220001 0.03,0.430001 0.08,0.640001 l -2.740002,1.15 c -0.229999,-0.270001 -0.560001,-0.44 -0.939998,-0.45 l -4e-6,0.01 z m -6.14,28.089998 -0.529998,3.279999 c -0.700001,0.08 -1.25,0.68 -1.25,1.400001 0,0.66 0.45,1.21 1.060001,1.369999 l 0.05,2.48 c -0.02,0.01 -0.05,0.02 -0.07,0.03 l -1.75,-1.459999 c 0.08,-0.169999 0.119999,-0.360001 0.119999,-0.560002 0,-0.720001 -0.55,-1.310001 -1.25,-1.380001 l -0.3,-1.66 c 1,-0.34 1.720001,-1.290001 1.720001,-2.400001 0,-0.459999 -0.119998,-0.89 -0.34,-1.259998 l 0.970002,-0.770001 c 0.43,0.43 0.970001,0.759998 1.579998,0.919998 l -0.01,0.01001 z m -30.95,-23.129999 -2.6900009,3.73 c -0.2200002,-0.09 -0.46,-0.15 -0.71,-0.15 -0.9800005,0 -1.7799997,0.799999 -1.7799997,1.780001 0,0.5 0.21,0.960001 0.5500002,1.28 l -2.81,4.58 C 4.7000017,29.6 4.3100014,29.52 3.9000015,29.52 c -0.03,0 -0.05,0 -0.08,0 l -0.22,-1.35 c 1.0699999,-0.34 1.8399999,-1.34 1.8399999,-2.51 0,-1.200001 -0.8000002,-2.209999 -1.9000001,-2.530001 l 0.1600001,-1.17 c 0.05,0 0.1,0 0.1600001,0 2.1300001,0 3.8600001,-1.729999 3.8600001,-3.860001 0,-0.1 0,-0.19 -0.01,-0.29 l 3.8899994,-0.680001 c 0.17,0.549999 0.480001,1.040001 0.890001,1.42 v -0.01 z m 2.92,7.780001 c 0,-1.25 1.02,-2.270001 2.27,-2.270001 1.25,0 2.270001,1.020001 2.270001,2.270001 0,1.25 -1.020001,2.27 -2.270001,2.27 -1.25,0 -2.27,-1.02 -2.27,-2.27 z m 2.43,-15.23 c 0,-0.66 0.530001,-1.1900004 1.190001,-1.1900004 0.659999,0 1.19,0.5299994 1.19,1.1900004 0,0.65 -0.530001,1.190001 -1.19,1.190001 -0.65,0 -1.190001,-0.53 -1.190001,-1.190001 z"
         style="fill:url(#linearGradient48);fill-opacity:1;fill-rule:evenodd;stroke:none"
         transform="matrix(1.4330607,0,0,1.4330607,244.28531,444.65561)"
         clip-path="url(#clipPath48)" />
      <g
         id="g83"
         transform="translate(202.44558,366.69388)">
        <path
           id="path83"
           d="m 31.3798,742.9694 h 69.16373 v 56.19553 H 31.3798 Z"
           style="fill:#000000;fill-opacity:0;fill-rule:nonzero;stroke:none"
           transform="matrix(1.3333333,0,0,-1.3333333,0,1143.8799)" />
      </g>
    </g>
    <g
       id="g84">
      <path
         id="path84"
         d="M -13.461865,-51.53285 H 622.20361 V 112.52323 H -13.461865 Z"
         style="fill:#000000;fill-opacity:0;fill-rule:nonzero;stroke:none"
         transform="matrix(1.3333333,0,0,-1.3333333,0,1143.8799)" />
    </g>
    <g
       id="g85">
      <path
         id="path85"
         d="m 37.68974,40.49923 h 519.8961 V 79.860566 H 37.68974 Z"
         style="fill:#000000;fill-opacity:0;fill-rule:nonzero;stroke:none"
         transform="matrix(1.3333333,0,0,-1.3333333,0,1143.8799)" />
    </g>
    <g
       id="g86">
      <path
         id="path86"
         d="M 59.527557,54.489323 H 72.395775 V 67.357541 H 59.527557 Z"
         style="fill:#000000;fill-opacity:0;fill-rule:nonzero;stroke:none"
         transform="matrix(1.3333333,0,0,-1.3333333,0,1143.8799)" />
    </g>
    <g
       id="g87">
      <path
         id="path87"
         d="m 238.32416,54.315388 h 12.71398 v 12.713978 h -12.71398 z"
         style="fill:#000000;fill-opacity:0;fill-rule:nonzero;stroke:none"
         transform="matrix(1.3333333,0,0,-1.3333333,0,1143.8799)" />
    </g>
    <g
       id="g88">
      <path
         id="path88"
         d="m 381.327,54.529957 h 13.82249 V 65.829839 H 381.327 Z"
         style="fill:#000000;fill-opacity:0;fill-rule:nonzero;stroke:none"
         transform="matrix(1.3333333,0,0,-1.3333333,0,1143.8799)" />
    </g>
  </g>
</svg>
